<svg version="1.1" xmlns="http://www.w3.org/2000/svg" xmlns:xlink="http://www.w3.org/1999/xlink" xmlns:i="http://ns.adobe.com/AdobeIllustrator/10.0/" xmlns:sketch="http://www.bohemiancoding.com/sketch/ns" height="100%" width="100%" x="0px" y="0px" viewBox="0 0 640 480" xml:space="preserve" preserveAspectRatio="xMidYMid meet" class="">
<rect x="0px" y="0px" width="100%" height="100%" fill="#ffffff"></rect><g class="logo-container-box logoContainerBox" transform="scale(0.75) translate(106.66662851969403,80.00001525878906)"><g class="containerBody" transform="scale(0.8265889723559571) translate(24.883174182904497,50.34985393429753)"><g class="sampleIconBox" transform="scale(1) translate(0,0)"><g class="sampleIcons_1" transform="scale(1.0000022125293093) translate(79.19977970695496,190.00008506774904)" fill="#db5726"><g><path d="M6.262,47.917c0.732,0.337,1.681,0.626,2.705,0.901c0.757,0.206,1.531,0.408,2.438,0.584   c4.263,0.822,10.081,1.321,16.536,1.321c6.451,0,12.306-0.534,16.584-1.376c2.14-0.42,3.862-0.889,5.14-1.481   c0.642-0.297,1.18-0.614,1.592-1.01c0.411-0.392,0.636-0.762,0.636-1.377c0.032-1.152,0.056-2.346,0.105-3.551   c0-0.612-0.33-1.088-0.741-1.481c-0.412-0.396-0.95-0.714-1.592-1.01c-1.278-0.59-3.002-1.117-5.14-1.537   c-4.277-0.834-10.133-1.323-16.584-1.323c-6.455,0-12.311,0.488-16.588,1.323c-2.138,0.42-3.863,0.946-5.14,1.537   c-0.642,0.296-1.179,0.614-1.592,1.01c-0.358,0.343-0.562,0.765-0.632,1.27c0,1.41,0,2.878,0,4.036   c0.104,0.445,0.365,0.851,0.685,1.158C5.085,47.303,5.625,47.625,6.262,47.917z M7.217,46.488c-0.076-0.033-0.193-0.077-0.264-0.11   c-0.262-0.126-0.503-0.274-0.741-0.422v-1.482c0.28,0.129,0.681,0.248,1.005,0.368V46.488z M8.967,47.123   c-0.402-0.118-0.668-0.25-1.01-0.371v-1.643c0.324,0.106,0.65,0.216,1.01,0.318V47.123z M10.823,47.548   c-0.337-0.074-0.652-0.138-0.954-0.214v-1.696c0.322,0.079,0.609,0.192,0.954,0.266V47.548z M12.677,47.917   c-0.307-0.051-0.663-0.104-0.954-0.159c-0.02-0.002-0.033,0.003-0.056,0v-1.696c0.313,0.059,0.68,0.103,1.01,0.16V47.917z    M14.478,48.184c-0.353-0.049-0.671-0.11-1.004-0.159v-1.646c0.336,0.055,0.65,0.113,1.004,0.159V48.184z M16.332,48.447   c-0.33-0.037-0.686-0.12-1.004-0.159v-1.644c0.318,0.041,0.673,0.069,1.004,0.106V48.447z M18.135,48.606   c-0.332-0.03-0.634-0.074-0.955-0.106v-1.696c0.323,0.033,0.624,0.077,0.955,0.106V48.606z M19.989,48.766   c-0.33-0.021-0.686-0.027-1.008-0.055v-1.748c0.322,0.024,0.678,0.03,1.008,0.051V48.766z M21.845,48.869   c-0.343-0.016-0.673-0.031-1.006-0.051V47.07c0.333,0.02,0.665,0.036,1.006,0.053V48.869z M23.646,48.925   c-0.325-0.011-0.637-0.038-0.955-0.056v-1.694c0.318,0.016,0.632,0.043,0.955,0.054V48.925z M25.448,48.978   c-0.317-0.006-0.644,0.008-0.955,0v-1.696c0.312,0.007,0.637-0.006,0.955,0V48.978z M27.356,49.03c-0.342,0-0.668-0.05-1.01-0.053   v-1.696c0.341,0.006,0.663,0.052,1.01,0.052V49.03z M29.105,48.978c-0.305,0.002-0.596,0.053-0.902,0.053v-1.697   c0.307,0,0.597,0.005,0.902,0V48.978z M30.96,48.978c-0.315,0.008-0.638-0.006-0.957,0v-1.696c0.323-0.006,0.642,0.007,0.957,0   V48.978z M32.812,48.925c-0.327,0.014-0.67-0.011-1.005,0v-1.695c0.333-0.011,0.68,0.011,1.005,0V48.925z M34.618,48.818   c-0.304,0.02-0.592,0.035-0.904,0.051v-1.694c0.305-0.014,0.602-0.034,0.904-0.053V48.818z M36.472,48.659   c-0.33,0.024-0.674,0.085-1.009,0.106V47.07c0.332-0.021,0.685-0.027,1.009-0.056V48.659z M38.328,48.5   c-0.341,0.035-0.658,0.073-1.01,0.106v-1.643c0.353-0.03,0.665-0.074,1.01-0.107V48.5z M40.127,48.289   c-0.305,0.039-0.639,0.071-0.955,0.104v-1.641c0.318-0.032,0.648-0.016,0.955-0.055V48.289z M41.983,48.074   c-0.346,0.055-0.648,0.112-1.008,0.159v-1.641c0.36-0.046,0.662-0.11,1.008-0.159V48.074z M43.837,47.758   c-0.312,0.059-0.677,0.103-1.008,0.159v-1.643c0.332-0.055,0.69-0.102,1.008-0.159V47.758z M45.587,47.389   c-0.302,0.071-0.577,0.142-0.902,0.21v-1.643c0.332-0.066,0.589-0.139,0.902-0.212V47.389z M47.491,46.856   c-0.32,0.105-0.634,0.219-1.005,0.319v-1.642c0.335-0.088,0.698-0.17,1.005-0.266V46.856z M49.296,46.17   c-0.109,0.055-0.2,0.099-0.317,0.159c-0.17,0.077-0.444,0.135-0.637,0.208v-1.588c0.316-0.112,0.676-0.198,0.954-0.316V46.17z    M51.041,44.737c-0.241,0.308-0.515,0.587-0.845,0.849v-1.378c0.328-0.172,0.594-0.375,0.845-0.583V44.737z M5.735,41.665   c0.205-0.198,0.627-0.441,1.163-0.692c1.07-0.493,2.71-0.971,4.769-1.376c4.127-0.807,9.906-1.323,16.273-1.323   c6.364,0,12.143,0.516,16.266,1.323c2.061,0.406,3.699,0.883,4.772,1.376c0.533,0.251,0.957,0.494,1.163,0.692   c0.208,0.197,0.16,0.25,0.16,0.263c0,0.017,0.048,0.121-0.16,0.318c-0.206,0.198-0.63,0.442-1.163,0.691   c-1.074,0.494-2.712,0.972-4.772,1.378c-4.124,0.804-9.902,1.322-16.266,1.322c-6.368,0-12.146-0.518-16.273-1.322   c-2.059-0.406-3.698-0.884-4.769-1.378c-0.536-0.249-0.958-0.493-1.163-0.691c-0.208-0.198-0.214-0.302-0.214-0.318   C5.521,41.915,5.527,41.862,5.735,41.665z M5.31,43.997v1.323c-0.178-0.144-0.359-0.319-0.528-0.479l-0.056-1.27   C4.907,43.729,5.085,43.859,5.31,43.997z"></path><path d="M66.837,65.881c-1.121-0.854-2.669-1.771-4.666-2.649c-3.989-1.752-9.596-3.515-15.897-4.929   c-6.296-1.409-12.123-2.21-16.481-2.332c-2.177-0.06-3.974,0.077-5.353,0.372c-0.033,0.007-0.059,0.019-0.091,0.026   c-2.881-2.254-5.961-3.788-8.912-4.515c-4.002-0.984-7.835-0.422-10.364,2.047c-0.993,0.972-1.554,1.524-2.432,2.366   c-2.529,2.469-3.144,6.265-2.26,10.278c0.877,4.017,3.24,8.333,6.892,12.08c3.654,3.744,7.903,6.198,11.903,7.19   c3.999,0.991,7.839,0.499,10.371-1.97c0.856-0.859,1.554-1.47,2.425-2.369c2.529-2.47,3.189-6.288,2.303-10.314   c-0.113-0.515-0.252-1.034-0.415-1.558c2.826,0.905,5.954,1.771,9.341,2.53c6.299,1.412,12.123,2.165,16.481,2.28   c2.183,0.053,3.923-0.023,5.3-0.32c0.688-0.15,1.312-0.342,1.803-0.635c0.488-0.297,0.764-0.62,0.899-1.22   c0.287-1.118,0.591-2.282,0.902-3.443c0.132-0.601-0.11-1.115-0.424-1.591C67.847,66.732,67.396,66.31,66.837,65.881z    M2.555,57.244c0.086-0.215,1.504-1.646,2.051-2.151c-0.157,0.383-0.825,0.838-1.379,2.306l-1.064,1.112   C2.286,58.108,2.39,57.694,2.555,57.244z M1.732,60.117l1.062-1.111c-0.061,0.28-0.109,0.573-0.16,0.9L1.57,60.94   C1.61,60.675,1.676,60.407,1.732,60.117z M1.478,62.288l0.987-0.96c0.016,0.399,0.058,0.821,0.099,1.237l-1.022,0.998   C1.498,63.166,1.471,62.737,1.478,62.288z M1.681,64.466l0.983-0.965c0.021,0.153,0.04,0.295,0.069,0.451   c0.015,0.078,0.055,0.148,0.071,0.227c0.038,0.172,0.105,0.348,0.143,0.524l-1.021,1C1.831,65.292,1.755,64.881,1.681,64.466z    M2.174,66.719L3.2,65.72c0.098,0.326,0.243,0.649,0.361,0.979l-1.099,1.072C2.345,67.412,2.263,67.072,2.174,66.719z    M2.788,68.638l1.1-1.074c0.069,0.178,0.14,0.348,0.218,0.531c0.092,0.201,0.193,0.399,0.293,0.601l-1.14,1.11   C3.089,69.421,2.931,69.015,2.788,68.638z M3.589,70.596l1.176-1.148c0.125,0.242,0.268,0.476,0.403,0.721l-1.18,1.146   C3.858,71.067,3.709,70.843,3.589,70.596z M4.431,72.066L5.61,70.92c0.084,0.141,0.168,0.272,0.256,0.418   c0.105,0.168,0.181,0.356,0.29,0.524l-1.173,1.148C4.785,72.703,4.608,72.38,4.431,72.066z M5.461,73.729l1.212-1.186   c0.185,0.262,0.353,0.532,0.554,0.796c0.018,0.027,0.053,0.05,0.071,0.076l-1.252,1.218C5.829,74.343,5.665,74.026,5.461,73.729z    M7.266,76.115c-0.236-0.279-0.439-0.553-0.663-0.833l1.216-1.187c0.011,0.015,0.024,0.023,0.033,0.04   c0.182,0.224,0.329,0.458,0.518,0.68c0.035,0.039,0.076,0.075,0.112,0.113L7.266,76.115z M7.86,76.721l1.176-1.146   c0.203,0.218,0.414,0.425,0.628,0.643l-1.212,1.185C8.244,77.188,8.058,76.939,7.86,76.721z M9.044,78.011l1.25-1.225   c0.285,0.272,0.561,0.543,0.851,0.799l-1.252,1.221C9.61,78.553,9.32,78.279,9.044,78.011z M10.563,79.338l1.214-1.183   c0.206,0.177,0.425,0.322,0.632,0.497l-1.252,1.217C10.95,79.704,10.77,79.513,10.563,79.338z M11.898,80.405l1.214-1.183   c0.167,0.129,0.31,0.294,0.481,0.417c0.017,0.011,0.021,0.028,0.038,0.038l-1.174,1.148C12.271,80.695,12.081,80.539,11.898,80.405   z M13.198,81.283l1.178-1.146c0.138,0.086,0.275,0.182,0.409,0.266c0.091,0.061,0.17,0.134,0.261,0.192l-1.176,1.146   C13.64,81.604,13.426,81.432,13.198,81.283z M14.686,82.202l1.176-1.146c0.272,0.16,0.548,0.31,0.822,0.458l-1.178,1.146   C15.227,82.521,14.965,82.356,14.686,82.202z M16.327,83.047l1.135-1.11c0.106,0.048,0.202,0.107,0.3,0.153   c0.035,0.017,0.076,0.022,0.112,0.039c0.124,0.057,0.248,0.1,0.373,0.152l-1.14,1.111C16.849,83.287,16.588,83.163,16.327,83.047z    M18.899,84.013c-0.279-0.082-0.54-0.211-0.821-0.307l1.064-1.037c0.275,0.107,0.549,0.209,0.82,0.31L18.899,84.013z    M19.833,84.287l1.024-0.998c0.261,0.077,0.526,0.137,0.785,0.198l-1.024,0.998C20.357,84.414,20.095,84.356,19.833,84.287z    M21.589,84.723l1.061-1.036c0.254,0.045,0.497,0.056,0.749,0.086L22.3,84.841C22.051,84.807,21.822,84.773,21.589,84.723z    M24.136,84.902c-0.259,0.017-0.518,0.074-0.754,0.067l1.104-1.072c0.012,0,0.312-0.018,0.746-0.065L24.136,84.902z M26.236,84.558   c-0.238,0.06-0.488,0.132-0.713,0.175l1.176-1.148c0.225-0.048,0.47-0.108,0.714-0.175L26.236,84.558z M28.758,83.723   c-0.255,0.105-0.473,0.165-0.716,0.254l1.366-1.329c0.18-0.089,0.39-0.158,0.566-0.258C30.329,82.408,28.416,83.732,28.758,83.723z    M30.788,80.266c-0.358,0.346-0.786,0.625-1.209,0.884c-0.271,0.158-0.531,0.312-0.831,0.438c-0.299,0.126-0.616,0.236-0.94,0.327   c-0.013,0.003-0.023,0.033-0.038,0.036c-0.307,0.084-0.643,0.087-0.978,0.135c-0.343,0.057-0.685,0.122-1.047,0.139   c-0.365,0.017-0.743,0.004-1.124-0.013c-0.762-0.043-1.575-0.142-2.397-0.33c-0.407-0.094-0.813-0.223-1.23-0.352   c-0.079-0.024-0.15-0.053-0.224-0.081c-0.038-0.01-0.076-0.026-0.111-0.036c-0.316-0.105-0.615-0.223-0.934-0.35   c-0.148-0.058-0.302-0.092-0.45-0.155c-0.266-0.113-0.548-0.261-0.818-0.386c-0.396-0.185-0.797-0.399-1.189-0.613   c-0.165-0.089-0.318-0.174-0.483-0.27c-0.117-0.063-0.226-0.123-0.338-0.192c-0.183-0.109-0.376-0.225-0.556-0.344   c-0.429-0.271-0.879-0.573-1.3-0.877c-0.424-0.304-0.813-0.614-1.226-0.952c-0.83-0.675-1.663-1.4-2.448-2.204   c-0.383-0.391-0.757-0.81-1.108-1.212c-0.045-0.053-0.103-0.099-0.148-0.152c-0.324-0.376-0.592-0.753-0.886-1.135   c-0.327-0.422-0.663-0.855-0.957-1.283c-0.254-0.371-0.474-0.726-0.7-1.099c-0.146-0.237-0.265-0.479-0.404-0.716   c-0.148-0.264-0.304-0.495-0.439-0.756c-0.053-0.101-0.099-0.201-0.148-0.3c-0.148-0.304-0.302-0.604-0.439-0.907   c-0.046-0.109-0.061-0.229-0.105-0.34c-0.081-0.185-0.187-0.38-0.257-0.564c-0.18-0.465-0.328-0.934-0.468-1.392   c-0.146-0.466-0.294-0.934-0.396-1.391c-0.018-0.081-0.058-0.148-0.074-0.227c-0.04-0.213-0.071-0.429-0.104-0.64   c-0.033-0.198-0.044-0.402-0.064-0.601c-0.048-0.407-0.092-0.771-0.101-1.161c-0.01-0.38,0.026-0.726,0.053-1.089   c0.025-0.323,0.033-0.663,0.084-0.97c0.018-0.076,0.066-0.148,0.081-0.225c0.038-0.204,0.104-0.402,0.157-0.599   c0.021-0.086,0.017-0.177,0.042-0.261c0.101-0.326,0.211-0.632,0.348-0.932c0.13-0.296,0.291-0.553,0.46-0.822   c0.267-0.417,0.559-0.839,0.914-1.184c2.004-1.953,5.163-2.51,8.791-1.617c3.627,0.891,7.627,3.19,11.083,6.733   c3.456,3.544,5.691,7.635,6.493,11.285C33.423,75.166,32.79,78.312,30.788,80.266z M32.121,65.527   c0.196,0.064,0.392,0.128,0.587,0.195l-0.146,0.647C32.423,66.089,32.271,65.808,32.121,65.527z M34.085,67.896   c-0.317-0.102-0.592-0.218-0.899-0.319l0.369-1.64c0.311,0.099,0.584,0.214,0.902,0.314L34.085,67.896z M35.835,68.478   c-0.318-0.093-0.646-0.17-0.953-0.264l0.369-1.696c0.311,0.094,0.691,0.172,1.008,0.264L35.835,68.478z M37.635,69.01   c-0.328-0.094-0.63-0.226-0.955-0.318l0.373-1.695c0.323,0.093,0.626,0.173,0.957,0.264L37.635,69.01z M39.387,69.433   c-0.315-0.083-0.594-0.18-0.901-0.263l0.368-1.646c0.307,0.083,0.59,0.186,0.902,0.268L39.387,69.433z M41.134,69.854   c-0.307-0.074-0.65-0.132-0.952-0.209l0.368-1.646c0.305,0.077,0.648,0.139,0.955,0.215L41.134,69.854z M42.989,70.331   c-0.332-0.075-0.627-0.186-0.952-0.264l0.366-1.643c0.33,0.079,0.62,0.189,0.957,0.267L42.989,70.331z M44.685,70.651   c-0.298-0.064-0.602-0.039-0.904-0.105l0.373-1.695c0.3,0.065,0.605,0.148,0.901,0.211L44.685,70.651z M46.486,71.075   c-0.307-0.062-0.59-0.146-0.899-0.209l0.368-1.646c0.312,0.064,0.594,0.151,0.902,0.213L46.486,71.075z M48.342,71.446   c-0.325-0.056-0.681-0.148-1.008-0.211l0.373-1.699c0.325,0.066,0.685,0.208,1.006,0.268L48.342,71.446z M50.089,71.711   c-0.297-0.048-0.542-0.053-0.846-0.106l0.37-1.695c0.304,0.053,0.553,0.11,0.848,0.158L50.089,71.711z M51.945,71.977   c-0.327-0.048-0.679-0.055-1.007-0.107l0.37-1.642c0.328,0.05,0.683,0.11,1.008,0.16L51.945,71.977z M53.799,72.241   c-0.336-0.041-0.661-0.059-1.006-0.105l0.369-1.646c0.354,0.051,0.665,0.065,1.008,0.108L53.799,72.241z M55.602,72.4   c-0.307-0.03-0.643-0.069-0.953-0.105l0.369-1.591c0.317,0.036,0.647,0.129,0.956,0.162L55.602,72.4z M57.458,72.613   c-0.35-0.025-0.646-0.021-1.012-0.053l0.373-1.593c0.359,0.033,0.66,0.03,1.008,0.057L57.458,72.613z M59.364,72.72   c-0.318-0.011-0.727-0.036-1.062-0.056l0.374-1.64c0.333,0.018,0.682,0.091,1.005,0.104L59.364,72.72z M61.111,72.72   c-0.31,0.004-0.567,0.004-0.9,0l0.371-1.592c0.34,0.009,0.579,0.002,0.904,0L61.111,72.72z M63.126,72.613   c-0.337,0.029-0.673,0.09-1.058,0.106l0.369-1.592c0.349-0.012,0.685-0.027,1.008-0.053L63.126,72.613z M65.036,72.346   c-0.121,0.034-0.241,0.077-0.373,0.107c-0.182,0.039-0.427,0.02-0.637,0.053l0.318-1.538c0.335-0.039,0.708-0.048,1.01-0.102   L65.036,72.346z M60.475,69.433c-4.196-0.115-9.948-0.886-16.159-2.278c-5.247-1.177-9.976-2.584-13.638-4.012   c-0.957-1.41-2.065-2.789-3.338-4.094c-0.422-0.433-0.854-0.845-1.291-1.243c1.021-0.096,2.26-0.123,3.689-0.084   c4.205,0.116,9.952,0.883,16.164,2.277c6.214,1.394,11.735,3.134,15.584,4.824c1.92,0.843,3.408,1.668,4.345,2.384   c0.467,0.359,0.847,0.716,1.006,0.952c0.159,0.239,0.111,0.252,0.103,0.266c0,0.015-0.018,0.118-0.262,0.267   c-0.246,0.148-0.693,0.301-1.274,0.423C64.251,69.365,62.578,69.49,60.475,69.433z M67.05,71.343   c-0.304,0.241-0.632,0.45-1.01,0.634l0.266-1.325c0.358-0.099,0.662-0.277,0.952-0.424L67.05,71.343z"></path><path d="M46.194,33.964c0.195,0.583,0.662,0.931,1.176,1.176c0.516,0.241,1.125,0.369,1.828,0.45   c1.399,0.152,3.2,0.104,5.363-0.177c4.318-0.567,10.029-1.964,16.146-4.014v-0.002c6.12-2.047,11.518-4.374,15.309-6.525   c1.894-1.076,3.363-2.124,4.386-3.09c0.513-0.482,0.922-0.955,1.188-1.459c0.232-0.439,0.289-0.906,0.191-1.405   c-0.445-1.339-0.912-2.73-1.281-3.825c-0.236-0.395-0.615-0.695-1.017-0.884c-0.515-0.241-1.128-0.373-1.826-0.449   c-0.8-0.088-1.789-0.061-2.849,0.005c-0.783,0.05-1.578,0.099-2.497,0.219c-4.301,0.577-9.98,1.949-16.099,3.999   c-6.121,2.049-11.497,4.42-15.29,6.577c-1.895,1.078-3.378,2.068-4.401,3.039c-0.515,0.483-0.922,0.956-1.188,1.461   c-0.268,0.504-0.361,0.926-0.165,1.509C45.5,31.672,45.859,32.811,46.194,33.964z M90.042,16.202l0.453,1.19   c-0.221-0.093-0.429-0.159-0.688-0.217l-0.422-1.256C89.604,15.998,89.827,16.108,90.042,16.202z M87.491,15.437   c0.289,0.041,0.566,0.101,0.842,0.167l0.469,1.406c-0.312-0.033-0.727-0.018-1.074-0.032l-0.521-1.558   C87.289,15.427,87.414,15.427,87.491,15.437z M86.419,15.405l0.523,1.556c-0.343,0.002-0.683,0-1.06,0.02l-0.537-1.608   C85.767,15.355,86.06,15.397,86.419,15.405z M84.425,15.458l0.538,1.607c-0.33,0.027-0.639,0.012-0.988,0.053l-0.521-1.559   C83.793,15.523,84.111,15.482,84.425,15.458z M82.529,15.645c0.021-0.003,0.035-0.014,0.052-0.016l0.539,1.607   c-0.314,0.043-0.676,0.118-1.006,0.167l-0.538-1.607C81.883,15.751,82.239,15.686,82.529,15.645z M80.791,15.949l0.521,1.559   c-0.34,0.057-0.656,0.102-1.007,0.17l-0.521-1.558C80.135,16.053,80.456,16.004,80.791,15.949z M78.948,16.286l0.52,1.559   c-0.318,0.063-0.663,0.148-0.986,0.22l-0.537-1.608C78.268,16.388,78.629,16.35,78.948,16.286z M77.121,16.675l0.537,1.609   c-0.316,0.071-0.613,0.124-0.938,0.2l-0.538-1.608C76.504,16.799,76.808,16.744,77.121,16.675z M75.344,17.046l0.56,1.657   c-0.315,0.08-0.655,0.187-0.974,0.269l-0.556-1.657C74.694,17.233,75.032,17.123,75.344,17.046z M73.553,17.535l0.556,1.657   c-0.325,0.088-0.644,0.182-0.973,0.272l-0.555-1.66C72.911,17.713,73.229,17.623,73.553,17.535z M71.776,18.073l0.539,1.607   c-0.304,0.088-0.612,0.165-0.922,0.255l-0.538-1.607C71.166,18.234,71.468,18.163,71.776,18.073z M70.037,18.544l0.535,1.608   c-0.297,0.093-0.6,0.208-0.904,0.304L69.13,18.85C69.432,18.754,69.737,18.638,70.037,18.544z M68.277,19.137l0.538,1.608   c-0.322,0.102-0.646,0.16-0.972,0.269l-0.541-1.608C67.629,19.296,67.956,19.239,68.277,19.137z M66.501,19.674l0.537,1.608   c-0.29,0.099-0.565,0.187-0.855,0.286l-0.521-1.559C65.95,19.912,66.21,19.774,66.501,19.674z M64.81,20.294l0.54,1.608   c-0.302,0.11-0.609,0.198-0.906,0.305L63.906,20.6C64.198,20.493,64.51,20.405,64.81,20.294z M63.116,20.92l0.541,1.608   c-0.312,0.116-0.652,0.204-0.955,0.317l-0.543-1.607C62.468,21.124,62.803,21.037,63.116,20.92z M61.326,21.576l0.538,1.608   c-0.286,0.112-0.557,0.222-0.84,0.337l-0.538-1.607C60.771,21.799,61.036,21.688,61.326,21.576z M59.701,22.232l0.538,1.608   c-0.307,0.127-0.637,0.245-0.938,0.37l-0.521-1.558C59.081,22.523,59.39,22.358,59.701,22.232z M57.992,22.974l0.521,1.555   c-0.327,0.14-0.607,0.281-0.917,0.42l-0.526-1.556C57.38,23.253,57.671,23.109,57.992,22.974z M56.3,23.764l0.52,1.556   c-0.285,0.134-0.602,0.222-0.886,0.353l-0.503-1.509C55.708,24.032,56.015,23.895,56.3,23.764z M54.644,24.485l0.52,1.559   c-0.323,0.155-0.592,0.313-0.902,0.469l-0.522-1.559C54.048,24.795,54.318,24.647,54.644,24.485z M52.984,25.377l0.521,1.559   c-0.299,0.153-0.621,0.312-0.904,0.469l-0.521-1.558C52.359,25.689,52.688,25.534,52.984,25.377z M51.328,26.266l0.521,1.559   c-0.294,0.17-0.514,0.318-0.785,0.488l-0.525-1.559C50.804,26.59,51.041,26.437,51.328,26.266z M49.753,27.243l0.521,1.555   c-0.29,0.191-0.604,0.385-0.866,0.572L48.9,27.864C49.172,27.66,49.434,27.454,49.753,27.243z M52.824,29.229   c3.655-2.074,8.969-4.402,15.006-6.424c6.036-2.021,11.68-3.366,15.848-3.91c2.08-0.273,3.787-0.34,4.959-0.208   c0.589,0.062,1.067,0.159,1.324,0.28c0.259,0.121,0.299,0.222,0.302,0.236c0.005,0.014,0.017,0.065-0.118,0.318   c-0.131,0.252-0.457,0.621-0.886,1.023c-0.854,0.81-2.254,1.784-4.083,2.821c-3.654,2.078-8.969,4.404-15.008,6.424   c-6.038,2.024-11.68,3.368-15.848,3.912c-2.082,0.274-3.784,0.34-4.957,0.208c-0.587-0.062-1.069-0.159-1.325-0.28   c-0.259-0.124-0.231-0.189-0.236-0.204c-0.005-0.013-0.083-0.098,0.049-0.351c0.134-0.252,0.457-0.619,0.884-1.023   C49.6,31.244,50.995,30.266,52.824,29.229z M47.661,28.837c0.132-0.129,0.373-0.269,0.536-0.403l0.504,1.509   c-0.266,0.208-0.576,0.4-0.805,0.604l-0.488-1.46C47.494,28.999,47.567,28.928,47.661,28.837z M46.74,29.926l0.438,1.306   c-0.254,0.269-0.444,0.546-0.617,0.823l-0.353-1.053C46.34,30.634,46.511,30.278,46.74,29.926z"></path><path d="M97.357,37.983c-0.876-0.846-1.437-1.394-2.43-2.369c-2.528-2.466-6.364-3.032-10.367-2.044   c-4.002,0.981-8.246,3.447-11.9,7.192c-3.655,3.745-6.049,8.088-6.935,12.113c-0.886,4.028-0.229,7.849,2.301,10.316   c0.873,0.894,1.57,1.511,2.427,2.365c2.532,2.47,6.367,2.964,10.367,1.973c4.001-0.989,8.253-3.447,11.903-7.192   c3.656-3.747,6.015-8.063,6.896-12.077C100.504,44.244,99.885,40.448,97.357,37.983z M98.43,42.653l-1.063-1.035   c-0.052-0.326-0.1-0.618-0.162-0.896l1.062,1.111C98.324,42.12,98.391,42.389,98.43,42.653z M97.445,38.956   c0.163,0.454,0.269,0.865,0.391,1.271l-1.063-1.114c-0.553-1.465-1.223-1.921-1.378-2.305   C95.938,37.31,97.356,38.745,97.445,38.956z M71.24,65.438c0.343,0.011-1.569-1.316-1.214-1.336   c0.173,0.101,0.386,0.172,0.563,0.256l1.368,1.331C71.715,65.603,71.494,65.541,71.24,65.438z M72.193,63.626   c-0.325-0.088-0.644-0.199-0.941-0.323c-0.299-0.127-0.562-0.279-0.833-0.44c-0.421-0.258-0.849-0.538-1.206-0.885   c-2.005-1.952-2.637-5.099-1.833-8.745c0.8-3.649,3.037-7.743,6.493-11.288c3.455-3.539,7.456-5.838,11.083-6.733   c3.628-0.889,6.786-0.337,8.789,1.619c0.356,0.345,0.646,0.768,0.916,1.186c0.166,0.269,0.326,0.526,0.46,0.816   c0.137,0.303,0.246,0.607,0.347,0.933c0.026,0.086,0.02,0.177,0.041,0.265c0.053,0.196,0.117,0.394,0.158,0.597   c0.013,0.077,0.062,0.148,0.077,0.225c0.052,0.307,0.063,0.647,0.086,0.972c0.025,0.359,0.064,0.708,0.053,1.086   c-0.008,0.393-0.053,0.755-0.099,1.164c-0.023,0.198-0.033,0.398-0.066,0.598c-0.032,0.209-0.064,0.428-0.104,0.639   c-0.015,0.08-0.055,0.146-0.072,0.228c-0.104,0.455-0.253,0.922-0.396,1.389c-0.14,0.461-0.288,0.927-0.47,1.394   c-0.071,0.187-0.175,0.378-0.258,0.565c-0.044,0.11-0.058,0.23-0.108,0.34c-0.132,0.3-0.287,0.601-0.434,0.903   c-0.054,0.102-0.096,0.202-0.149,0.302c-0.138,0.263-0.292,0.493-0.44,0.754c-0.137,0.241-0.259,0.477-0.403,0.719   c-0.228,0.37-0.444,0.724-0.698,1.095c-0.294,0.431-0.632,0.861-0.957,1.287c-0.295,0.381-0.563,0.761-0.886,1.137   c-0.046,0.049-0.104,0.099-0.149,0.148c-0.352,0.405-0.725,0.821-1.109,1.212c-0.783,0.807-1.616,1.531-2.447,2.206   c-0.411,0.338-0.8,0.648-1.225,0.953c-0.42,0.304-0.87,0.605-1.3,0.878c-0.18,0.115-0.372,0.232-0.561,0.343   c-0.108,0.064-0.22,0.125-0.333,0.191c-0.165,0.096-0.318,0.178-0.483,0.269c-0.396,0.215-0.797,0.428-1.191,0.615   c-0.269,0.126-0.551,0.268-0.818,0.383c-0.146,0.062-0.305,0.1-0.448,0.155c-0.318,0.125-0.618,0.244-0.934,0.35   c-0.035,0.012-0.074,0.03-0.11,0.04c-0.076,0.024-0.147,0.054-0.225,0.075c-0.421,0.133-0.823,0.26-1.235,0.355   c-0.816,0.186-1.63,0.288-2.392,0.328c-0.382,0.02-0.759,0.031-1.125,0.013c-0.363-0.015-0.706-0.084-1.05-0.135   c-0.331-0.05-0.668-0.057-0.975-0.137C72.213,63.66,72.207,63.631,72.193,63.626z M73.762,66.269l-1.178-1.146   c0.244,0.066,0.492,0.129,0.717,0.178l1.174,1.146C74.252,66.404,73.998,66.33,73.762,66.269z M75.863,66.616l-1.1-1.072   c0.438,0.047,0.739,0.066,0.747,0.066l1.104,1.072C76.379,66.689,76.123,66.632,75.863,66.616z M77.7,66.558l-1.103-1.074   c0.254-0.029,0.497-0.041,0.751-0.084l1.061,1.036C78.175,66.484,77.949,66.518,77.7,66.558z M79.381,66.201l-1.022-1   c0.257-0.062,0.524-0.12,0.783-0.198l1.024,1C79.903,66.069,79.643,66.128,79.381,66.201z M81.1,65.729l-1.061-1.04   c0.269-0.099,0.544-0.201,0.818-0.307l1.063,1.036C81.641,65.515,81.38,65.646,81.1,65.729z M82.89,65.109l-1.137-1.115   c0.125-0.053,0.249-0.096,0.373-0.153c0.036-0.017,0.077-0.021,0.111-0.038c0.1-0.045,0.195-0.105,0.301-0.155l1.135,1.111   C83.412,64.878,83.15,65,82.89,65.109z M84.494,64.373l-1.18-1.147c0.276-0.149,0.55-0.298,0.822-0.457l1.178,1.146   C85.034,64.071,84.773,64.233,84.494,64.373z M86.131,63.456l-1.177-1.148c0.091-0.059,0.169-0.132,0.261-0.191   c0.131-0.085,0.268-0.183,0.408-0.269l1.178,1.148C86.573,63.143,86.36,63.315,86.131,63.456z M87.543,62.537l-1.177-1.146   c0.014-0.008,0.023-0.028,0.038-0.036c0.169-0.122,0.317-0.29,0.481-0.419l1.215,1.181C87.917,62.255,87.728,62.407,87.543,62.537z    M88.843,61.585l-1.252-1.221c0.206-0.175,0.426-0.323,0.632-0.498l1.212,1.187C89.229,61.228,89.051,61.421,88.843,61.585z    M90.103,60.52l-1.248-1.221c0.29-0.254,0.565-0.529,0.85-0.798l1.25,1.221C90.679,59.992,90.39,60.266,90.103,60.52z    M91.548,59.114l-1.212-1.185c0.214-0.216,0.422-0.422,0.628-0.642l1.177,1.146C91.938,58.654,91.756,58.901,91.548,59.114z    M92.734,57.826l-1.216-1.187c0.034-0.037,0.075-0.07,0.112-0.112c0.189-0.221,0.333-0.455,0.515-0.679   c0.011-0.016,0.024-0.025,0.036-0.04l1.216,1.185C93.173,57.273,92.968,57.551,92.734,57.826z M93.951,56.35l-1.252-1.221   c0.02-0.028,0.05-0.046,0.072-0.076c0.2-0.264,0.366-0.534,0.555-0.795l1.213,1.187C94.336,55.741,94.171,56.056,93.951,56.35z    M95.016,54.725l-1.175-1.146c0.11-0.171,0.188-0.356,0.29-0.527c0.09-0.143,0.175-0.28,0.26-0.416l1.176,1.148   C95.39,54.092,95.213,54.418,95.016,54.725z M96.009,53.027l-1.177-1.147c0.136-0.245,0.277-0.475,0.402-0.716l1.177,1.146   C96.29,52.558,96.139,52.78,96.009,53.027z M96.737,51.521l-1.137-1.11c0.101-0.201,0.2-0.398,0.294-0.604   c0.077-0.178,0.148-0.352,0.216-0.526l1.103,1.072C97.067,50.73,96.906,51.137,96.737,51.521z M97.537,49.485l-1.099-1.074   c0.119-0.329,0.263-0.65,0.361-0.979l1.024,0.999C97.735,48.785,97.653,49.128,97.537,49.485z M98.072,47.416l-1.02-0.999   c0.038-0.176,0.104-0.351,0.142-0.527c0.019-0.077,0.055-0.147,0.072-0.224c0.03-0.155,0.048-0.3,0.069-0.451l0.983,0.963   C98.242,46.592,98.166,47.007,98.072,47.416z M98.46,45.276l-1.023-1c0.042-0.414,0.083-0.833,0.096-1.236l0.983,0.963   C98.527,44.453,98.503,44.881,98.46,45.276z"></path><path d="M47.801,64.528c-0.04-0.105,0.261-0.11,0.633-0.093c0.667,0.033,1.925,0.401,2.57,0.423   c0.302,0.012,0.438-0.078,0.319-0.182c-0.132-0.122-0.727-0.268-0.846-0.386c0.079-0.109,0.359-0.146,0.617-0.253   c0.381,0.019,1.169,0.263,1.36,0.21c0.045-0.206-0.73-0.502-1.084-0.785c-0.414-0.318,0.159-0.531-1.024-1.06   c0.218-0.072,1.402,0.185,1.347,0.043c-0.147-0.376-2.562-1.052-4.2-1.481c-1.635-0.427-3.241-0.742-4.749-0.93   c-1.64-0.201-3.066-0.366-4.2-0.081c-0.216,0.56-0.193,0.81,0.714,1.381c0.318,0.267,1.052,0.689,1.488,0.871   c0.006,0.209-0.909,0.176-1.457,0.233c-1.968-0.01-5.477,0.27-4.962,0.806c3.979,1.949,15.369,4.587,19.747,4.565   C54.625,67.57,49.464,65.627,47.801,64.528z"></path><path d="M23.735,67.666c-0.85-0.538-2.093-1.108-2.563-1.194c-0.767-0.718-1.021-1.709-1.452-2.561   c-0.765-2.346-3.222-7.538-4.954-8.756c-5.47-1.896-10.397,2.808-8.525,8.169c1.102,1.498,6.052,1.929,9.363,3.687   c0.37,0.315,0.512,0.698,0.597,1.087c0.15,0.687-0.671,0.945-0.478,1.66c0.077,0.316,0.46,0.791,0.787,1.003   c0.389,0.254,0.67,0.032,1.058,0.307c0.425,0.462,0.674,0.927,1.169,1.609c0.099,0.403-0.48,0.509-0.208,0.921   c0.769,0.759,1.531,0.845,2.422,1.396c0.983,0.587,1.986,2.001,3.421,2.386c0.356,0.515-0.089,1.068,0.404,1.484   c1.298,1.108,2.77,0.518,3.654,0c0.894-0.497,1.384-1.354,1.45-2.534c0.058-1.286,0.071-2.447-1.435-4.797   C26.33,69.354,25.43,68.523,23.735,67.666z"></path><path d="M10.16,42.766c1.07,0.319,2.085,0.594,5.46,0.741c3.779-0.06,5.297-0.106,7.537-0.36   c1.201-0.101,2.794-0.302,3.283-0.407c1.3-0.037,2.389,0.126,3.523,0.209c2.719,0.342,9.434,0.902,12.014,0.72   c6.451-1.022,6.628-3.445,0.284-4.2c-2.29-0.053-7.006,1.173-11.425,1.65c-0.605,0.024-1.074-0.026-1.48-0.094   c-0.746-0.121-0.255-0.402-1.036-0.518c-0.348-0.053-1.099-0.062-1.579-0.023c-0.561,0.044-0.612,0.171-1.186,0.212   c-0.779,0.004-1.399-0.038-2.45-0.062c-0.429-0.07-0.026-0.247-0.624-0.273c-1.33,0.028-2.083,0.214-3.342,0.323   c-1.361,0.125-3.503,0.064-5.092,0.358c-0.755-0.024-0.851-0.274-1.641-0.239c-2.123,0.091-2.892,0.624-3.197,0.98   C8.861,42.143,9.178,42.473,10.16,42.766z"></path><path d="M66.808,26.674c0.089,0.073-0.163,0.236-0.485,0.414c-0.584,0.324-1.853,0.669-2.411,0.994   c-0.264,0.146-0.335,0.299-0.177,0.326c0.178,0.033,0.759-0.154,0.922-0.11c-0.006,0.135-0.224,0.313-0.389,0.544   c-0.332,0.187-1.134,0.388-1.269,0.534c0.074,0.204,0.889,0.055,1.339,0.116c0.52,0.056,0.144,0.545,1.432,0.379   c-0.145,0.178-1.289,0.581-1.166,0.675c0.325,0.248,2.735-0.436,4.358-0.932c1.616-0.489,3.145-1.06,4.528-1.695   c1.501-0.689,2.804-1.302,3.615-2.15c-0.113-0.601-0.266-0.806-1.337-0.823c-0.414-0.065-1.268-0.048-1.726,0.025   c-0.121-0.181,0.676-0.632,1.108-0.972c1.681-1.031,4.517-3.128,3.792-3.321c-4.414,0.397-15.501,4.117-19.208,6.448   C59.393,27.631,64.814,26.597,66.808,26.674z"></path><path d="M77.891,51.261c0.466,0.371,0.193,1.361,0.202,2.094c-0.44,2.243-0.579,6.776,0.7,7.148   c5.109-1.065,13.298-9.413,14.184-14.481c-0.412-1.064-5.754,1.374-8.504,1.312c-0.242-0.145-0.191-0.5-0.07-0.893   c0.216-0.706,1.284-1.495,1.471-2.192c0.091-0.329-0.074-0.645-0.328-0.7c-0.293-0.065-0.737,0.36-1.024,0.281   c-0.219-0.284-0.239-0.671-0.417-1.162c0.118-0.406,0.823-0.873,0.747-1.184c-0.438-0.425-1.254-0.065-1.95-0.171   c-0.78-0.095-1.123-1.136-2.525-0.723c-0.117-0.381,0.7-1.283,0.38-1.47c-0.85-0.504-2.843,1.055-4.131,2.166   c-1.281,1.107-2.314,2.389-3.042,3.787c-0.795,1.516-1.456,2.863-1.073,4.676c1.171,1.25,1.726,1.674,3.165,1.658   C76.324,51.521,77.406,51.438,77.891,51.261z"></path></g></g></g><g class="sampleTexts_1" transform="scale(1) translate(0.000006103515630684342,52.27501678466797)"><g class="logo--name svgLogoName_1 logoNameBox" transform="scale(1) translate(200.34000005722046,220.98999786376953)" fill="#db5726"><path d="M14.90-33.70L14.90-33.70Q14.54-34.27 14.18-34.85L14.18-34.85L14.18-34.85Q13.82-35.42 13.61-35.64L13.61-35.64L13.61-35.64Q11.88-37.80 9.58-37.80L9.58-37.80L9.58-37.80Q7.70-37.80 5.83-36.07L5.83-36.07L5.83-36.07Q1.94-32.40 0.65-28.08L0.65-28.08L0.65-28.08Q0.50-27.58-0.29-24.84L-0.29-24.84L-0.29-24.84Q-1.08-22.10-1.37-19.58L-1.37-19.58L-1.58-18.07L-1.58-18.07Q-1.94-14.83-1.94-14.11L-1.94-14.11L-1.94-14.11Q-1.94-12.82-1.58-11.16L-1.58-11.16L-1.58-11.16Q-1.08-9.07 0.29-7.92L0.29-7.92L0.29-7.92Q1.66-6.77 3.46-6.77L3.46-6.77L3.46-6.77Q4.90-6.77 6.26-7.42L6.26-7.42L6.26-7.42Q7.06-7.78 8.71-9.14L8.71-9.14L8.71-9.14Q10.58-10.80 12.46-13.39L12.46-13.39L12.46-13.39Q12.89-12.82 12.92-12.17L12.92-12.17L12.92-12.17Q12.96-11.52 13.03-11.23L13.03-11.23L13.03-11.23Q13.82-6.48 15.05-3.82L15.05-3.82L15.05-3.82Q16.85 0.14 21.17 0.14L21.17 0.14L21.17 0.14Q23.62 0.14 25.52-0.90L25.52-0.90L25.52-0.90Q27.43-1.94 28.73-3.89L28.73-3.89L28.73-3.89Q33.12-10.22 35.93-18.58L35.93-18.58L35.93-18.58Q36.07-18.86 36.07-19.08L36.07-19.08L36.07-19.08Q36.07-19.37 35.78-19.58L35.78-19.58L35.78-19.58Q35.50-19.73 35.35-19.73L35.35-19.73L35.35-19.73Q35.06-19.73 34.63-19.30L34.63-19.30L34.63-19.30Q34.06-18.50 33.55-17.42L33.55-17.42L33.55-17.42Q32.40-14.83 30.10-10.73L30.10-10.73L29.23-9.14L29.23-9.14Q27.65-6.26 24.98-4.97L24.98-4.97L24.98-4.97Q24.55-4.75 24.12-4.75L24.12-4.75L24.12-4.75Q23.62-4.75 23.33-5.08L23.33-5.08L23.33-5.08Q23.04-5.40 23.11-6.05L23.11-6.05L23.11-6.05Q23.33-7.78 23.40-9.90L23.40-9.90L23.40-9.90Q23.47-12.02 23.47-12.67L23.47-12.67L23.47-12.67Q23.47-17.21 23.90-20.23L23.90-20.23L23.90-20.23Q24.48-23.76 25.34-30.96L25.34-30.96L25.34-30.96Q26.14-37.08 26.50-39.53L26.50-39.53L26.50-39.53Q27.72-49.10 29.48-57.42L29.48-57.42L29.48-57.42Q31.25-65.74 33.84-73.51L33.84-73.51L33.84-73.51Q34.34-75.10 34.42-76.39L34.42-76.39L34.42-76.68L34.42-76.68Q34.42-78.05 33.41-78.41L33.41-78.41L33.41-78.41Q32.98-78.55 32.76-78.55L32.76-78.55L32.76-78.55Q31.97-78.55 31.32-77.54L31.32-77.54L31.32-77.54Q29.09-74.38 28.44-73.22L28.44-73.22L28.44-73.22Q27.22-71.06 25.20-66.46L25.20-66.46L25.20-66.46Q24.77-65.59 24.26-64.44L24.26-64.44L24.26-64.44Q23.76-63.29 23.04-61.85L23.04-61.85L23.04-61.85Q18.36-52.49 15.98-39.46L15.98-39.46L14.90-33.70ZM6.91-11.66L6.91-11.66Q5.90-11.52 5.69-11.52L5.69-11.52L5.69-11.52Q4.61-11.52 4.18-12.02L4.18-12.02L4.18-12.02Q3.74-12.53 3.67-13.68L3.67-13.68L3.67-13.68Q3.67-14.76 3.53-16.78L3.53-16.78L3.53-16.78Q3.38-19.80 3.38-21.31L3.38-21.31L3.38-21.31Q3.38-24.77 3.96-27.58L3.96-27.58L3.96-27.58Q4.90-32.18 6.84-34.56L6.84-34.56L6.84-34.56Q8.21-36.29 9.79-36.29L9.79-36.29L9.79-36.29Q11.30-36.29 12.60-34.70L12.60-34.70L12.60-34.70Q14.54-32.26 14.54-30.02L14.54-30.02L14.54-30.02Q14.54-29.09 14.40-28.58L14.40-28.58L14.40-28.58Q13.75-26.14 13.32-21.02L13.32-21.02L12.96-18.00L12.96-18.00Q12.67-15.98 10.80-13.97L10.80-13.97L10.80-13.97Q8.93-11.95 6.91-11.66L6.91-11.66ZM43.13-48.82L43.13-48.82Q43.27-51.84 40.75-51.84L40.75-51.84L40.75-51.84Q40.10-51.84 39.38-51.62L39.38-51.62L38.45-51.48L38.45-51.48Q37.66-51.26 37.19-50.69L37.19-50.69L37.19-50.69Q36.72-50.11 36.72-49.39L36.72-49.39L36.72-49.39Q36.72-48.74 37.01-48.24L37.01-48.24L37.01-48.24Q37.58-47.38 38.59-46.58L38.59-46.58L38.59-46.58Q39.10-46.15 40.03-46.15L40.03-46.15L40.03-46.15Q40.90-46.15 41.76-46.58L41.76-46.58L41.76-46.58Q43.20-47.23 43.13-48.82L43.13-48.82ZM51.48-18.58L51.48-18.58Q50.90-18.43 50.76-18.11L50.76-18.11L50.76-18.11Q50.62-17.78 50.54-17.14L50.54-17.14L50.54-17.14Q49.61-13.32 46.94-9.79L46.94-9.79L46.94-9.79Q45.14-7.42 44.21-6.55L44.21-6.55L44.21-6.55Q43.27-5.69 42.12-5.69L42.12-5.69L42.12-5.69Q41.54-5.69 41.26-5.76L41.26-5.76L41.26-5.76Q40.68-5.83 40.50-6.30L40.50-6.30L40.50-6.30Q40.32-6.77 40.25-7.63L40.25-7.63L40.25-7.63Q40.25-8.64 40.18-9.07L40.18-9.07L40.18-9.07Q40.18-9.50 40.14-10.04L40.14-10.04L40.14-10.04Q40.10-10.58 40.18-11.30L40.18-11.30L40.18-11.30Q40.32-15.77 40.32-18.14L40.32-18.14L40.32-18.14Q40.46-24.19 40.64-28.22L40.64-28.22L40.64-28.22Q40.82-32.26 41.33-36.36L41.33-36.36L41.33-36.36Q41.47-37.08 41.47-37.37L41.47-37.37L41.47-37.37Q41.47-37.94 41.26-38.45L41.26-38.45L41.26-38.45Q40.75-40.03 39.38-40.10L39.38-40.10L39.02-40.10L39.02-40.10Q37.87-40.10 37.22-39.02L37.22-39.02L37.22-39.02Q36.79-38.23 36.14-36.36L36.14-36.36L36.14-36.36Q35.57-34.42 34.27-28.73L34.27-28.73L34.27-28.73Q33.05-23.26 33.05-18.07L33.05-18.07L33.05-18.07Q33.05-14.98 33.41-12.74L33.41-12.74L33.41-12.74Q33.84-8.64 35.71-5.26L35.71-5.26L35.71-5.26Q36.43-4.10 37.66-3.46L37.66-3.46L37.66-3.46Q38.88-2.81 40.18-2.81L40.18-2.81L40.18-2.81Q42.41-2.81 43.92-4.39L43.92-4.39L43.92-4.39Q44.50-4.97 47.02-8.21L47.02-8.21L47.02-8.21Q48.60-10.30 49.61-12.06L49.61-12.06L49.61-12.06Q50.62-13.82 51.19-15.70L51.19-15.70L51.19-15.70Q51.62-16.99 51.62-17.64L51.62-17.64L51.62-17.64Q51.62-18.00 51.48-18.58L51.48-18.58ZM77.26-17.28L76.90-15.84L76.90-15.84Q74.95-10.66 73.55-7.24L73.55-7.24L73.55-7.24Q72.14-3.82 70.49-0.58L70.49-0.58L70.49-0.58Q68.47 3.17 63.86 8.06L63.86 8.06L63.86 8.06Q62.86 9.07 61.70 9.07L61.70 9.07L61.70 9.07Q61.20 9.07 60.91 8.93L60.91 8.93L60.91 8.93Q60.48 8.78 60.37 8.42L60.37 8.42L60.37 8.42Q60.26 8.06 60.26 7.56L60.26 7.56L60.26 7.56Q60.26 7.06 60.26 6.77L60.26 6.77L60.26 6.77Q60.05 5.18 60.05 3.53L60.05 3.53L60.05 3.53Q60.05 2.09 60.12 1.01L60.12 1.01L60.12 1.01Q60.19-0.07 60.26-0.79L60.26-0.79L60.26-0.79Q60.34-1.37 60.41-2.23L60.41-2.23L60.41-2.23Q60.48-3.10 60.48-4.18L60.48-4.18L60.48-4.18Q60.62-6.62 60.62-11.45L60.62-11.45L60.55-20.95L60.55-20.95Q60.55-22.32 60.70-25.06L60.70-25.06L60.77-29.09L60.77-29.09Q60.77-31.46 59.98-33.98L59.98-33.98L59.98-33.98Q59.69-35.28 59.26-35.96L59.26-35.96L59.26-35.96Q58.82-36.65 57.74-36.65L57.74-36.65L57.74-36.65Q56.74-36.72 56.12-36.18L56.12-36.18L56.12-36.18Q55.51-35.64 54.86-34.49L54.86-34.49L54.86-34.49Q54.58-33.84 54.50-33.70L54.50-33.70L54.50-33.70Q53.14-29.23 52.31-26.06L52.31-26.06L52.31-26.06Q51.48-22.90 51.12-19.73L51.12-19.73L51.12-19.73Q50.54-15.41 50.54-10.01L50.54-10.01L50.54-10.01Q50.54-5.33 51.05 1.37L51.05 1.37L51.05 1.37Q51.55 6.41 54.00 9.50L54.00 9.50L54.00 9.50Q56.30 12.31 58.75 12.31L58.75 12.31L58.75 12.31Q60.55 12.31 62.86 10.80L62.86 10.80L62.86 10.80Q64.08 10.01 65.02 8.78L65.02 8.78L65.02 8.78Q65.95 7.56 66.10 7.34L66.10 7.34L66.10 7.34Q69.34 4.18 72.36-1.37L72.36-1.37L72.36-1.37Q73.66-3.82 74.92-6.73L74.92-6.73L74.92-6.73Q76.18-9.65 77.26-12.53L77.26-12.53L77.26-12.53Q78.12-14.83 78.62-15.98L78.62-15.98L78.62-15.98Q78.77-16.34 78.98-16.99L78.98-16.99L78.98-16.99Q79.20-17.64 79.52-17.96L79.52-17.96L79.52-17.96Q79.85-18.29 80.50-18.43L80.50-18.43L80.50-18.43Q82.80-18.86 84.10-19.48L84.10-19.48L84.10-19.48Q85.39-20.09 86.54-20.88L86.54-20.88L86.54-20.88Q86.69-21.02 86.83-21.24L86.83-21.24L86.83-21.24Q86.98-21.46 86.98-21.67L86.98-21.67L86.98-21.67Q86.98-21.89 86.80-21.96L86.80-21.96L86.80-21.96Q86.62-22.03 86.26-21.82L86.26-21.82L86.26-21.82Q84.74-20.81 83.48-20.45L83.48-20.45L83.48-20.45Q82.22-20.09 80.28-20.23L80.28-20.23L80.57-22.25L80.57-22.25Q81.00-25.27 81.00-26.50L81.00-26.50L81.00-26.50Q81.00-27.65 80.53-28.26L80.53-28.26L80.53-28.26Q80.06-28.87 79.20-28.87L79.20-28.87L79.20-28.87Q78.48-28.87 77.83-28.51L77.83-28.51L77.83-28.51Q74.45-26.93 73.44-23.90L73.44-23.90L73.44-23.90Q72.94-22.68 72.94-21.53L72.94-21.53L72.94-21.53Q72.94-18.43 76.97-17.57L76.97-17.57L76.97-17.57Q77.04-17.57 77.08-17.46L77.08-17.46L77.08-17.46Q77.11-17.35 77.26-17.28L77.26-17.28ZM78.77-26.93L78.77-26.93Q78.98-25.99 78.98-25.06L78.98-25.06L78.98-25.06Q78.98-23.83 78.66-22.43L78.66-22.43L78.66-22.43Q78.34-21.02 78.26-20.45L78.26-20.45L78.26-20.45Q77.98-19.66 77.26-19.66L77.26-19.66L77.26-19.66Q76.18-19.66 75.60-19.84L75.60-19.84L75.60-19.84Q75.02-20.02 74.81-20.81L74.81-20.81L74.81-20.81Q74.66-21.53 74.66-21.82L74.66-21.82L74.66-21.82Q74.66-22.90 75.17-23.69L75.17-23.69L75.17-23.69Q76.75-26.14 78.77-26.93L78.77-26.93ZM94.03-48.82L94.03-48.82Q94.18-51.84 91.66-51.84L91.66-51.84L91.66-51.84Q91.01-51.84 90.29-51.62L90.29-51.62L89.35-51.48L89.35-51.48Q88.56-51.26 88.09-50.69L88.09-50.69L88.09-50.69Q87.62-50.11 87.62-49.39L87.62-49.39L87.62-49.39Q87.62-48.74 87.91-48.24L87.91-48.24L87.91-48.24Q88.49-47.38 89.50-46.58L89.50-46.58L89.50-46.58Q90.00-46.15 90.94-46.15L90.94-46.15L90.94-46.15Q91.80-46.15 92.66-46.58L92.66-46.58L92.66-46.58Q94.10-47.23 94.03-48.82L94.03-48.82ZM102.38-18.58L102.38-18.58Q101.81-18.43 101.66-18.11L101.66-18.11L101.66-18.11Q101.52-17.78 101.45-17.14L101.45-17.14L101.45-17.14Q100.51-13.32 97.85-9.79L97.85-9.79L97.85-9.79Q96.05-7.42 95.11-6.55L95.11-6.55L95.11-6.55Q94.18-5.69 93.02-5.69L93.02-5.69L93.02-5.69Q92.45-5.69 92.16-5.76L92.16-5.76L92.16-5.76Q91.58-5.83 91.40-6.30L91.40-6.30L91.40-6.30Q91.22-6.77 91.15-7.63L91.15-7.63L91.15-7.63Q91.15-8.64 91.08-9.07L91.08-9.07L91.08-9.07Q91.08-9.50 91.04-10.04L91.04-10.04L91.04-10.04Q91.01-10.58 91.08-11.30L91.08-11.30L91.08-11.30Q91.22-15.77 91.22-18.14L91.22-18.14L91.22-18.14Q91.37-24.19 91.55-28.22L91.55-28.22L91.55-28.22Q91.73-32.26 92.23-36.36L92.23-36.36L92.23-36.36Q92.38-37.08 92.38-37.37L92.38-37.37L92.38-37.37Q92.38-37.94 92.16-38.45L92.16-38.45L92.16-38.45Q91.66-40.03 90.29-40.10L90.29-40.10L89.93-40.10L89.93-40.10Q88.78-40.10 88.13-39.02L88.13-39.02L88.13-39.02Q87.70-38.23 87.05-36.36L87.05-36.36L87.05-36.36Q86.47-34.42 85.18-28.73L85.18-28.73L85.18-28.73Q83.95-23.26 83.95-18.07L83.95-18.07L83.95-18.07Q83.95-14.98 84.31-12.74L84.31-12.74L84.31-12.74Q84.74-8.64 86.62-5.26L86.62-5.26L86.62-5.26Q87.34-4.10 88.56-3.46L88.56-3.46L88.56-3.46Q89.78-2.81 91.08-2.81L91.08-2.81L91.08-2.81Q93.31-2.81 94.82-4.39L94.82-4.39L94.82-4.39Q95.40-4.97 97.92-8.21L97.92-8.21L97.92-8.21Q99.50-10.30 100.51-12.06L100.51-12.06L100.51-12.06Q101.52-13.82 102.10-15.70L102.10-15.70L102.10-15.70Q102.53-16.99 102.53-17.64L102.53-17.64L102.53-17.64Q102.53-18.00 102.38-18.58L102.38-18.58ZM117.07-33.70L117.07-33.70Q116.71-34.27 116.35-34.85L116.35-34.85L116.35-34.85Q115.99-35.42 115.78-35.64L115.78-35.64L115.78-35.64Q114.05-37.80 111.74-37.80L111.74-37.80L111.74-37.80Q109.87-37.80 108.00-36.07L108.00-36.07L108.00-36.07Q104.11-32.40 102.82-28.08L102.82-28.08L102.82-28.08Q102.67-27.58 101.88-24.84L101.88-24.84L101.88-24.84Q101.09-22.10 100.80-19.58L100.80-19.58L100.58-18.07L100.58-18.07Q100.22-14.83 100.22-14.11L100.22-14.11L100.22-14.11Q100.22-12.82 100.58-11.16L100.58-11.16L100.58-11.16Q101.09-9.07 102.46-7.92L102.46-7.92L102.46-7.92Q103.82-6.77 105.62-6.77L105.62-6.77L105.62-6.77Q107.06-6.77 108.43-7.42L108.43-7.42L108.43-7.42Q109.22-7.78 110.88-9.14L110.88-9.14L110.88-9.14Q112.75-10.80 114.62-13.39L114.62-13.39L114.62-13.39Q115.06-12.82 115.09-12.17L115.09-12.17L115.09-12.17Q115.13-11.52 115.20-11.23L115.20-11.23L115.20-11.23Q115.99-6.48 117.22-3.82L117.22-3.82L117.22-3.82Q119.02 0.14 123.34 0.14L123.34 0.14L123.34 0.14Q125.78 0.14 127.69-0.90L127.69-0.90L127.69-0.90Q129.60-1.94 130.90-3.89L130.90-3.89L130.90-3.89Q135.29-10.22 138.10-18.58L138.10-18.58L138.10-18.58Q138.24-18.86 138.24-19.08L138.24-19.08L138.24-19.08Q138.24-19.37 137.95-19.58L137.95-19.58L137.95-19.58Q137.66-19.73 137.52-19.73L137.52-19.73L137.52-19.73Q137.23-19.73 136.80-19.30L136.80-19.30L136.80-19.30Q136.22-18.50 135.72-17.42L135.72-17.42L135.72-17.42Q134.57-14.83 132.26-10.73L132.26-10.73L131.40-9.14L131.40-9.14Q129.82-6.26 127.15-4.97L127.15-4.97L127.15-4.97Q126.72-4.75 126.29-4.75L126.29-4.75L126.29-4.75Q125.78-4.75 125.50-5.08L125.50-5.08L125.50-5.08Q125.21-5.40 125.28-6.05L125.28-6.05L125.28-6.05Q125.50-7.78 125.57-9.90L125.57-9.90L125.57-9.90Q125.64-12.02 125.64-12.67L125.64-12.67L125.64-12.67Q125.64-17.21 126.07-20.23L126.07-20.23L126.07-20.23Q126.65-23.76 127.51-30.96L127.51-30.96L127.51-30.96Q128.30-37.08 128.66-39.53L128.66-39.53L128.66-39.53Q129.89-49.10 131.65-57.42L131.65-57.42L131.65-57.42Q133.42-65.74 136.01-73.51L136.01-73.51L136.01-73.51Q136.51-75.10 136.58-76.39L136.58-76.39L136.58-76.68L136.58-76.68Q136.58-78.05 135.58-78.41L135.58-78.41L135.58-78.41Q135.14-78.55 134.93-78.55L134.93-78.55L134.93-78.55Q134.14-78.55 133.49-77.54L133.49-77.54L133.49-77.54Q131.26-74.38 130.61-73.22L130.61-73.22L130.61-73.22Q129.38-71.06 127.37-66.46L127.37-66.46L127.37-66.46Q126.94-65.59 126.43-64.44L126.43-64.44L126.43-64.44Q125.93-63.29 125.21-61.85L125.21-61.85L125.21-61.85Q120.53-52.49 118.15-39.46L118.15-39.46L117.07-33.70ZM109.08-11.66L109.08-11.66Q108.07-11.52 107.86-11.52L107.86-11.52L107.86-11.52Q106.78-11.52 106.34-12.02L106.34-12.02L106.34-12.02Q105.91-12.53 105.84-13.68L105.84-13.68L105.84-13.68Q105.84-14.76 105.70-16.78L105.70-16.78L105.70-16.78Q105.55-19.80 105.55-21.31L105.55-21.31L105.55-21.31Q105.55-24.77 106.13-27.58L106.13-27.58L106.13-27.58Q107.06-32.18 109.01-34.56L109.01-34.56L109.01-34.56Q110.38-36.29 111.96-36.29L111.96-36.29L111.96-36.29Q113.47-36.29 114.77-34.70L114.77-34.70L114.77-34.70Q116.71-32.26 116.71-30.02L116.71-30.02L116.71-30.02Q116.71-29.09 116.57-28.58L116.57-28.58L116.57-28.58Q115.92-26.14 115.49-21.02L115.49-21.02L115.13-18.00L115.13-18.00Q114.84-15.98 112.97-13.97L112.97-13.97L112.97-13.97Q111.10-11.95 109.08-11.66L109.08-11.66ZM134.64-12.10L134.64-12.10Q134.64-9.36 134.93-7.99L134.93-7.99L134.93-7.99Q135.86-2.52 141.48-0.50L141.48-0.50L141.48-0.50Q142.78 0 144.22 0L144.22 0L144.22 0Q147.38 0 150.05-2.45L150.05-2.45L150.05-2.45Q152.57-4.68 154.37-7.52L154.37-7.52L154.37-7.52Q156.17-10.37 157.68-14.04L157.68-14.04L157.68-14.04Q159.70-18.94 160.63-21.38L160.63-21.38L160.63-21.38Q160.85-21.74 161.32-22.43L161.32-22.43L161.32-22.43Q161.78-23.11 161.78-23.54L161.78-23.54L161.78-23.54Q161.78-23.98 161.21-24.26L161.21-24.26L161.21-24.26Q160.06-24.84 159.19-21.82L159.19-21.82L159.19-21.82Q158.04-18.36 155.23-12.96L155.23-12.96L153.65-9.72L153.65-9.72Q151.92-6.05 148.46-4.32L148.46-4.32L148.46-4.32Q147.89-4.03 147.10-4.03L147.10-4.03L147.10-4.03Q146.09-4.03 145.58-4.97L145.58-4.97L145.58-4.97Q145.44-5.33 144.83-6.44L144.83-6.44L144.83-6.44Q144.22-7.56 144.22-8.57L144.22-8.57L144.22-8.57Q144.29-10.44 144.07-12.64L144.07-12.64L144.07-12.64Q143.86-14.83 143.78-15.41L143.78-15.41L143.78-15.41Q143.64-16.42 143.50-18.14L143.50-18.14L143.50-18.14Q143.35-19.94 144.07-21.10L144.07-21.10L144.07-21.10Q144.79-22.25 146.52-23.18L146.52-23.18L146.52-23.18Q155.74-28.08 156.82-38.81L156.82-38.81L156.82-38.81Q157.10-41.62 155.48-43.42L155.48-43.42L155.48-43.42Q153.86-45.22 151.34-45.22L151.34-45.22L151.34-45.22Q149.98-45.22 148.68-44.71L148.68-44.71L148.68-44.71Q145.15-43.34 143.06-40.03L143.06-40.03L143.06-40.03Q134.64-26.57 134.64-12.10L134.64-12.10ZM144.29-24.55L144.29-24.55Q145.08-31.97 147.24-37.44L147.24-37.44L147.24-37.44Q147.96-39.24 149.98-40.82L149.98-40.82L149.98-40.82Q151.20-41.76 152.28-41.76L152.28-41.76L152.28-41.76Q153.00-41.76 153.72-41.33L153.72-41.33L153.72-41.33Q154.80-40.61 154.80-39.31L154.80-39.31L154.80-39.31Q154.80-38.88 154.66-38.16L154.66-38.16L154.66-38.16Q154.01-34.99 152.86-32.51L152.86-32.51L152.86-32.51Q151.70-30.02 149.62-28.08L149.62-28.08L149.62-28.08Q149.40-27.86 148.43-27.00L148.43-27.00L148.43-27.00Q147.46-26.14 146.45-25.52L146.45-25.52L146.45-25.52Q145.44-24.91 144.29-24.55L144.29-24.55ZM183.53 4.54L183.53 4.54Q185.11-6.48 185.11-18.00L185.11-18.00L185.11-18.00Q185.11-25.99 184.32-34.85L184.32-34.85L184.32-34.85Q184.32-35.28 184.18-36.90L184.18-36.90L184.18-36.90Q184.03-38.52 183.60-39.85L183.60-39.85L183.60-39.85Q183.17-41.18 182.38-42.19L182.38-42.19L182.38-42.19Q181.08-43.85 179.78-43.85L179.78-43.85L179.78-43.85Q178.99-43.85 177.70-43.13L177.70-43.13L177.70-43.13Q176.54-42.41 175.90-41.11L175.90-41.11L175.90-41.11Q174.17-38.09 172.80-34.42L172.80-34.42L172.80-34.42Q171.79-31.61 171.29-28.91L171.29-28.91L171.29-28.91Q170.78-26.21 170.06-21.31L170.06-21.31L170.06-21.31Q169.99-21.10 169.96-20.63L169.96-20.63L169.96-20.63Q169.92-20.16 169.70-19.87L169.70-19.87L169.70-19.87Q169.49-19.58 169.06-19.37L169.06-19.37L169.06-19.37Q168.98-22.68 168.62-25.88L168.62-25.88L168.62-25.88Q168.26-29.09 167.62-33.84L167.62-33.84L167.11-37.44L167.11-37.44Q166.54-41.62 165.92-44.14L165.92-44.14L165.92-44.14Q165.31-46.66 163.94-48.96L163.94-48.96L163.94-48.96Q163.87-49.10 163.55-49.68L163.55-49.68L163.55-49.68Q163.22-50.26 162.83-50.54L162.83-50.54L162.83-50.54Q162.43-50.83 161.93-50.83L161.93-50.83L161.93-50.83Q161.06-50.83 160.67-50.36L160.67-50.36L160.67-50.36Q160.27-49.90 159.77-48.82L159.77-48.82L159.77-48.82Q158.11-45.36 158.04-41.40L158.04-41.40L158.04-41.40Q157.97-40.03 157.97-37.30L157.97-37.30L157.97-37.30Q157.97-32.18 158.33-26.50L158.33-26.50L158.33-26.50Q158.69-20.81 158.76-19.66L158.76-19.66L158.76-19.66Q159.19-13.18 159.34-10.22L159.34-10.22L159.34-10.22Q159.41-9.00 159.37-8.14L159.37-8.14L159.37-8.14Q159.34-7.27 159.34-6.77L159.34-6.77L159.34-5.18L159.34-5.18Q159.34-2.52 160.13-1.08L160.13-1.08L160.13-1.08Q160.92 0.36 163.37 0.79L163.37 0.79L163.37 0.79Q165.24 1.08 165.74 1.08L165.74 1.08L165.74 1.08Q167.76 1.08 168.66 0.11L168.66 0.11L168.66 0.11Q169.56-0.86 169.78-2.48L169.78-2.48L169.78-2.48Q169.99-4.10 170.06-7.34L170.06-7.34L170.06-7.34Q170.06-10.66 170.24-13.18L170.24-13.18L170.24-13.18Q170.42-15.70 171.14-18.43L171.14-18.43L171.14-18.43Q171.65-20.38 172.37-24.41L172.37-24.41L172.37-24.41Q172.44-24.91 172.87-26.96L172.87-26.96L172.87-26.96Q173.30-29.02 173.77-30.74L173.77-30.74L173.77-30.74Q174.24-32.47 174.82-33.84L174.82-33.84L174.82-33.84Q176.40-37.73 177.98-40.54L177.98-40.54L177.98-40.54Q178.63-41.47 179.35-41.11L179.35-41.11L179.35-41.11Q180.00-40.90 180.00-40.03L180.00-40.03L180.00-40.03Q180.00-39.31 180.04-38.30L180.04-38.30L180.04-38.30Q180.07-37.30 180.00-35.93L180.00-35.93L180.00-35.93Q179.78-32.18 179.35-28.69L179.35-28.69L179.35-28.69Q178.92-25.20 177.91-18.86L177.91-18.86L177.48-16.06L177.48-16.06Q176.76-10.73 176.36-6.73L176.36-6.73L176.36-6.73Q175.97-2.74 175.97 1.22L175.97 1.22L176.04 3.60L176.04 3.60Q176.18 7.27 177.26 10.30L177.26 10.30L177.26 10.30Q177.77 11.74 178.74 12.10L178.74 12.10L178.74 12.10Q179.71 12.46 180.83 12.42L180.83 12.42L180.83 12.42Q181.94 12.38 182.30 12.38L182.30 12.38L182.30 12.38Q183.96 12.38 186.30 9.79L186.30 9.79L186.30 9.79Q188.64 7.20 190.15 4.25L190.15 4.25L190.15 4.25Q191.45 1.66 194.26-4.90L194.26-4.90L194.26-4.90Q194.69-5.83 195.80-8.50L195.80-8.50L195.80-8.50Q196.92-11.16 198.00-13.25L198.00-13.25L198.00-13.25Q198.22-13.68 198.32-14.29L198.32-14.29L198.32-14.29Q198.43-14.90 198.50-15.12L198.50-15.12L198.50-15.12Q198.58-15.26 198.58-15.55L198.58-15.55L198.58-15.55Q198.58-16.13 198.07-16.20L198.07-16.20L197.78-16.27L197.78-16.27Q197.35-16.27 197.06-15.84L197.06-15.84L197.06-15.84Q196.78-15.55 196.34-14.69L196.34-14.69L189.43 0.79L189.43 0.79Q185.54 9.50 184.10 9.50L184.10 9.50L184.10 9.50Q183.38 9.50 183.38 7.27L183.38 7.27L183.38 7.27Q183.38 5.69 183.53 4.54L183.53 4.54ZM211.32-33.70L211.32-33.70Q210.96-34.27 210.60-34.85L210.60-34.85L210.60-34.85Q210.24-35.42 210.02-35.64L210.02-35.64L210.02-35.64Q208.30-37.80 205.99-37.80L205.99-37.80L205.99-37.80Q204.12-37.80 202.25-36.07L202.25-36.07L202.25-36.07Q198.36-32.40 197.06-28.08L197.06-28.08L197.06-28.08Q196.92-27.58 196.13-24.84L196.13-24.84L196.13-24.84Q195.34-22.10 195.05-19.58L195.05-19.58L194.83-18.07L194.83-18.07Q194.47-14.83 194.47-14.11L194.47-14.11L194.47-14.11Q194.47-12.82 194.83-11.16L194.83-11.16L194.83-11.16Q195.34-9.07 196.70-7.92L196.70-7.92L196.70-7.92Q198.07-6.77 199.87-6.77L199.87-6.77L199.87-6.77Q201.31-6.77 202.68-7.42L202.68-7.42L202.68-7.42Q203.47-7.78 205.13-9.14L205.13-9.14L205.13-9.14Q207.00-10.80 208.87-13.39L208.87-13.39L208.87-13.39Q209.30-12.82 209.34-12.17L209.34-12.17L209.34-12.17Q209.38-11.52 209.45-11.23L209.45-11.23L209.45-11.23Q210.24-6.48 211.46-3.82L211.46-3.82L211.46-3.82Q213.26 0.14 217.58 0.14L217.58 0.14L217.58 0.14Q220.03 0.14 221.94-0.90L221.94-0.90L221.94-0.90Q223.85-1.94 225.14-3.89L225.14-3.89L225.14-3.89Q229.54-10.22 232.34-18.58L232.34-18.58L232.34-18.58Q232.49-18.86 232.49-19.08L232.49-19.08L232.49-19.08Q232.49-19.37 232.20-19.58L232.20-19.58L232.20-19.58Q231.91-19.73 231.77-19.73L231.77-19.73L231.77-19.73Q231.48-19.73 231.05-19.30L231.05-19.30L231.05-19.30Q230.47-18.50 229.97-17.42L229.97-17.42L229.97-17.42Q228.82-14.83 226.51-10.73L226.51-10.73L225.65-9.14L225.65-9.14Q224.06-6.26 221.40-4.97L221.40-4.97L221.40-4.97Q220.97-4.75 220.54-4.75L220.54-4.75L220.54-4.75Q220.03-4.75 219.74-5.08L219.74-5.08L219.74-5.08Q219.46-5.40 219.53-6.05L219.53-6.05L219.53-6.05Q219.74-7.78 219.82-9.90L219.82-9.90L219.82-9.90Q219.89-12.02 219.89-12.67L219.89-12.67L219.89-12.67Q219.89-17.21 220.32-20.23L220.32-20.23L220.32-20.23Q220.90-23.76 221.76-30.96L221.76-30.96L221.76-30.96Q222.55-37.08 222.91-39.53L222.91-39.53L222.91-39.53Q224.14-49.10 225.90-57.42L225.90-57.42L225.90-57.42Q227.66-65.74 230.26-73.51L230.26-73.51L230.26-73.51Q230.76-75.10 230.83-76.39L230.83-76.39L230.83-76.68L230.83-76.68Q230.83-78.05 229.82-78.41L229.82-78.41L229.82-78.41Q229.39-78.55 229.18-78.55L229.18-78.55L229.18-78.55Q228.38-78.55 227.74-77.54L227.74-77.54L227.74-77.54Q225.50-74.38 224.86-73.22L224.86-73.22L224.86-73.22Q223.63-71.06 221.62-66.46L221.62-66.46L221.62-66.46Q221.18-65.59 220.68-64.44L220.68-64.44L220.68-64.44Q220.18-63.29 219.46-61.85L219.46-61.85L219.46-61.85Q214.78-52.49 212.40-39.46L212.40-39.46L211.32-33.70ZM203.33-11.66L203.33-11.66Q202.32-11.52 202.10-11.52L202.10-11.52L202.10-11.52Q201.02-11.52 200.59-12.02L200.59-12.02L200.59-12.02Q200.16-12.53 200.09-13.68L200.09-13.68L200.09-13.68Q200.09-14.76 199.94-16.78L199.94-16.78L199.94-16.78Q199.80-19.80 199.80-21.31L199.80-21.31L199.80-21.31Q199.80-24.77 200.38-27.58L200.38-27.58L200.38-27.58Q201.31-32.18 203.26-34.56L203.26-34.56L203.26-34.56Q204.62-36.29 206.21-36.29L206.21-36.29L206.21-36.29Q207.72-36.29 209.02-34.70L209.02-34.70L209.02-34.70Q210.96-32.26 210.96-30.02L210.96-30.02L210.96-30.02Q210.96-29.09 210.82-28.58L210.82-28.58L210.82-28.58Q210.17-26.14 209.74-21.02L209.74-21.02L209.38-18.00L209.38-18.00Q209.09-15.98 207.22-13.97L207.22-13.97L207.22-13.97Q205.34-11.95 203.33-11.66L203.33-11.66ZM291.60-29.02L291.60-29.02Q292.82-30.02 293.18-31.28L293.18-31.28L293.18-31.28Q293.54-32.54 293.76-34.70L293.76-34.70L293.76-34.70Q294.05-38.30 290.45-40.10L290.45-40.10L290.45-40.10Q288.50-41.04 286.42-41.04L286.42-41.04L286.42-41.04Q284.18-41.04 281.95-39.89L281.95-39.89L281.95-39.89Q276.41-37.01 273.89-30.24L273.89-30.24L273.89-30.24Q271.37-23.40 271.37-15.84L271.37-15.84L271.37-15.84Q271.37-13.03 271.66-10.80L271.66-10.80L271.66-10.80Q272.09-7.27 274.03-4.72L274.03-4.72L274.03-4.72Q275.98-2.16 279.29-0.79L279.29-0.79L279.29-0.79Q281.23 0 282.74 0L282.74 0L282.74 0Q285.62 0 287.64-2.59L287.64-2.59L290.30-5.98L290.30-5.98Q291.46-7.27 291.96-7.92L291.96-7.92L301.39-20.02L301.39-20.02Q301.54-20.16 302.11-21.17L302.11-21.17L302.11-21.17Q302.26-21.46 302.26-21.74L302.26-21.74L302.26-21.74Q302.26-22.25 301.90-22.39L301.90-22.39L301.90-22.39Q301.68-22.61 301.39-22.61L301.39-22.61L301.39-22.61Q301.03-22.61 300.67-22.25L300.67-22.25L300.67-22.25Q300.02-21.74 299.56-20.95L299.56-20.95L299.56-20.95Q299.09-20.16 298.87-19.87L298.87-19.87L298.87-19.87Q297.65-17.86 296.82-16.74L296.82-16.74L296.82-16.74Q295.99-15.62 294.84-14.69L294.84-14.69L294.84-14.69Q293.90-13.90 292.90-12.17L292.90-12.17L292.90-12.17Q290.95-9.00 289.62-7.42L289.62-7.42L289.62-7.42Q288.29-5.83 286.13-4.82L286.13-4.82L286.13-4.82Q285.48-4.54 284.83-4.54L284.83-4.54L284.83-4.54Q283.75-4.54 282.89-5.40L282.89-5.40L282.89-5.40Q281.88-6.41 281.52-8.06L281.52-8.06L281.52-8.06Q280.87-11.30 280.87-14.69L280.87-14.69L280.87-14.69Q280.87-17.57 281.59-20.45L281.59-20.45L281.59-20.45Q282.31-23.33 283.68-27.14L283.68-27.14L283.68-27.14Q285.12-31.61 288.94-34.63L288.94-34.63L288.94-34.63Q289.01-34.70 289.40-35.03L289.40-35.03L289.40-35.03Q289.80-35.35 290.20-35.42L290.20-35.42L290.20-35.42Q290.59-35.50 290.95-35.28L290.95-35.28L290.95-35.28Q291.96-34.70 291.82-33.12L291.82-33.12L291.82-33.12Q291.82-32.62 291.71-32.18L291.71-32.18L291.71-32.18Q291.60-31.75 291.60-31.25L291.60-31.25L291.60-31.25Q291.53-31.03 291.42-30.60L291.42-30.60L291.42-30.60Q291.31-30.17 291.31-29.88L291.31-29.88L291.31-29.88Q291.31-29.38 291.60-29.02L291.60-29.02ZM308.66-5.54L308.59-7.85L308.59-7.85Q308.59-12.96 309.38-18.65L309.38-18.65L309.38-18.65Q310.10-23.90 310.10-31.18L310.10-31.18L310.10-31.18Q310.10-35.93 310.03-38.38L310.03-38.38L310.03-40.90L310.03-40.90Q310.03-47.74 310.54-53.71L310.54-53.71L310.97-59.76L310.97-59.76Q311.83-70.85 311.83-76.46L311.83-76.46L311.83-76.46Q311.83-79.56 311.76-81.07L311.76-81.07L311.76-81.07Q311.76-83.09 311.33-84.02L311.33-84.02L311.33-84.02Q310.68-85.54 309.38-85.54L309.38-85.54L309.38-85.54Q308.30-85.54 307.44-84.38L307.44-84.38L307.44-84.38Q306.79-83.59 306.50-81.86L306.50-81.86L304.99-74.02L304.99-74.02Q304.34-70.85 303.70-66.85L303.70-66.85L303.70-66.85Q303.05-62.86 302.76-61.27L302.76-61.27L302.76-61.27Q301.25-51.91 300.38-47.59L300.38-47.59L300.38-47.59Q299.74-44.42 299.48-41.18L299.48-41.18L299.48-41.18Q299.23-37.94 299.09-33.12L299.09-33.12L298.66-26.35L298.66-26.35Q298.08-18.72 298.08-14.98L298.08-14.98L298.15-7.63L298.15-7.63Q298.15-4.39 298.01-2.74L298.01-2.74L297.94-0.36L297.94-0.36Q297.94 1.08 298.15 2.45L298.15 2.45L298.15 2.45Q298.51 4.39 299.77 5.54L299.77 5.54L299.77 5.54Q301.03 6.70 302.76 6.70L302.76 6.70L302.76 6.70Q304.13 6.70 305.24 5.94L305.24 5.94L305.24 5.94Q306.36 5.18 307.01 3.74L307.01 3.74L307.01 3.74Q307.22 3.24 308.34 0.72L308.34 0.72L308.34 0.72Q309.46-1.80 310.18-4.10L310.18-4.10L310.18-4.10Q312.48-11.95 316.80-21.82L316.80-21.82L317.45-23.40L317.45-23.40Q318.96-27.00 320.11-29.34L320.11-29.34L320.11-29.34Q321.26-31.68 322.85-33.77L322.85-33.77L322.85-33.77Q324.36-35.71 326.38-36.94L326.38-36.94L326.38-36.94Q326.45-35.21 326.20-33.77L326.20-33.77L326.20-33.77Q325.94-32.33 325.30-29.95L325.30-29.95L319.82-8.71L319.82-8.71Q318.96-5.40 318.96-2.81L318.96-2.81L318.96-2.81Q318.96-0.86 319.54 1.30L319.54 1.30L319.54 1.30Q320.18 3.60 320.90 4.97L320.90 4.97L320.90 4.97Q321.62 6.34 323.14 7.20L323.14 7.20L323.14 7.20Q324.00 7.70 324.72 7.70L324.72 7.70L324.72 7.70Q325.30 7.70 325.73 7.34L325.73 7.34L325.73 7.34Q327.60 5.98 328.54 5.11L328.54 5.11L328.54 5.11Q329.47 4.25 330.12 2.95L330.12 2.95L335.38-7.13L339.91-15.70L339.91-15.70Q340.20-16.13 340.34-16.70L340.34-16.70L340.34-16.70Q340.42-16.85 340.42-17.06L340.42-17.06L340.42-17.06Q340.42-17.42 340.06-17.64L340.06-17.64L340.06-17.64Q339.77-17.78 339.62-17.78L339.62-17.78L339.62-17.78Q339.26-17.78 339.05-17.57L339.05-17.57L339.05-17.57Q338.33-17.06 337.61-15.62L337.61-15.62L331.78-3.53L331.78-3.53Q329.54 1.01 327.67 3.24L327.67 3.24L327.67 3.24Q326.45 4.46 325.51 4.46L325.51 4.46L325.51 4.46Q325.15 4.46 324.79 4.25L324.79 4.25L324.79 4.25Q324.00 3.74 324.00 2.88L324.00 2.88L324.00 2.88Q324.00 2.16 324.58 1.01L324.58 1.01L324.58 1.01Q325.94-1.44 326.59-5.76L326.59-5.76L327.60-12.60L327.60-12.60Q328.68-18.72 329.26-23.90L329.26-23.90L329.54-26.14L329.54-26.14Q330.19-29.74 330.19-32.18L330.19-32.18L330.19-32.18Q330.19-33.98 329.76-35.93L329.76-35.93L329.76-35.93Q328.97-38.81 327.17-38.81L327.17-38.81L327.17-38.81Q326.09-38.81 324.65-37.58L324.65-37.58L324.65-37.58Q320.98-34.56 319.03-30.31L319.03-30.31L319.03-30.31Q312.48-16.49 309.60-6.91L309.60-6.91L309.60-6.91Q309.60-6.84 309.42-6.30L309.42-6.30L309.42-6.30Q309.24-5.76 308.66-5.54L308.66-5.54ZM341.71-14.69L341.71-14.69Q341.71-16.49 341.86-19.08L341.86-19.08L341.86-19.08Q342.29-23.47 343.80-29.45L343.80-29.45L343.80-29.45Q344.23-31.39 345.82-32.98L345.82-32.98L345.82-32.98Q347.40-34.42 348.84-34.78L348.84-34.78L348.84-34.78Q349.06-34.85 349.42-34.85L349.42-34.85L349.42-34.85Q350.42-34.85 351.07-33.77L351.07-33.77L351.79-32.11L351.79-32.11Q352.80-29.74 352.80-27.58L352.80-27.58L352.80-27.58Q352.80-27.07 352.66-25.92L352.66-25.92L352.66-25.92Q352.58-25.56 352.01-23.18L352.01-23.18L352.01-23.18Q351.22-19.66 351.22-15.48L351.22-15.48L351.29-13.18L351.29-13.18Q351.50-9.79 352.22-5.04L352.22-5.04L352.22-5.04Q352.66-1.94 353.38-0.22L353.38-0.22L353.38-0.22Q354.38 2.30 356.36 3.74L356.36 3.74L356.36 3.74Q358.34 5.18 360.94 5.18L360.94 5.18L360.94 5.18Q363.60 5.33 365.26 3.24L365.26 3.24L365.26 3.24Q367.27 0.65 368.64-2.16L368.64-2.16L368.64-2.16Q370.08-5.33 371.52-10.51L371.52-10.51L372.02-12.24L372.02-12.24Q372.82-14.98 373.32-16.13L373.32-16.13L373.32-16.13Q373.46-16.42 373.46-16.63L373.46-16.63L373.46-16.78L373.46-16.78Q373.46-17.21 373.10-17.42L373.10-17.42L372.53-17.57L372.53-17.57Q372.02-17.57 371.74-17.06L371.74-17.06L371.74-17.06Q371.45-16.63 371.34-16.09L371.34-16.09L371.34-16.09Q371.23-15.55 371.16-15.41L371.16-15.41L371.16-15.41Q369.22-9.43 367.42-5.76L367.42-5.76L367.42-5.76Q366.05-2.95 364.46-1.22L364.46-1.22L364.46-1.22Q363.82-0.50 363.31-0.22L363.31-0.22L363.31-0.22Q362.74 0.14 362.30 0.14L362.30 0.14L362.30 0.14Q361.51 0.14 361.08-0.79L361.08-0.79L361.08-0.79Q360.72-1.22 360.65-1.73L360.65-1.73L360.65-1.73Q360.07-3.53 360.07-5.90L360.07-5.90L360.07-5.90Q360.22-10.80 360.36-13.25L360.36-13.25L360.50-16.92L360.50-16.92Q360.94-24.41 361.08-27.79L361.08-27.79L361.08-27.79Q361.22-32.62 361.87-36.36L361.87-36.36L361.87-36.36Q361.94-36.65 362.02-37.19L362.02-37.19L362.02-37.19Q362.09-37.73 362.09-38.16L362.09-38.16L362.09-38.16Q362.09-39.38 361.51-40.18L361.51-40.18L361.51-40.18Q360.94-40.97 360.00-41.04L360.00-41.04L360.00-41.04Q358.92-41.04 357.98-40.10L357.98-40.10L357.98-40.10Q356.76-38.88 355.82-36.50L355.82-36.50L355.82-36.50Q355.54-35.64 355.07-34.52L355.07-34.52L355.07-34.52Q354.60-33.41 354.31-32.83L354.31-32.83L354.31-32.83Q354.24-32.54 353.95-32.76L353.95-32.76L353.95-32.76Q353.66-33.05 353.23-33.91L353.23-33.91L353.23-33.91Q352.94-34.63 352.30-35.57L352.30-35.57L352.30-35.57Q350.71-37.73 348.41-37.73L348.41-37.73L348.41-37.73Q346.90-37.73 345.31-36.72L345.31-36.72L345.31-36.72Q344.23-35.93 342.86-34.34L342.86-34.34L342.86-34.34Q341.42-32.47 339.91-28.80L339.91-28.80L339.91-28.80Q337.18-21.89 337.25-15.26L337.25-15.26L337.25-15.26Q337.25-11.52 338.33-6.98L338.33-6.98L338.33-6.98Q338.98-4.54 340.85-3.10L340.85-3.10L340.85-3.10Q341.93-2.23 343.08-2.23L343.08-2.23L343.08-2.23Q343.51-2.23 344.52-2.52L344.52-2.52L344.52-2.52Q345.46-2.81 346.68-4.03L346.68-4.03L346.68-4.03Q348.12-5.54 350.28-9.00L350.28-9.00L350.28-9.00Q350.42-9.43 350.42-9.58L350.42-9.58L350.42-9.58Q350.42-9.86 350.06-10.08L350.06-10.08L350.06-10.08Q349.99-10.15 349.85-10.04L349.85-10.04L349.85-10.04Q349.70-9.94 349.63-9.94L349.63-9.94L349.63-9.94Q349.27-9.65 348.70-8.78L348.70-8.78L348.70-8.78Q347.98-7.70 347.47-7.06L347.47-7.06L347.47-7.06Q346.46-5.47 345.31-4.90L345.31-4.90L345.31-4.90Q344.74-4.54 344.23-4.54L344.23-4.54L344.23-4.54Q343.37-4.54 342.94-5.62L342.94-5.62L342.94-5.62Q342.43-6.48 342.36-7.20L342.36-7.20L342.36-7.20Q341.71-11.09 341.71-14.69L341.71-14.69ZM383.98-9.36L383.98-9.36Q381.89-16.06 377.64-21.53L377.64-21.53L377.64-21.53Q376.85-22.61 376.85-23.90L376.85-23.90L376.85-23.90Q376.85-24.62 377.21-25.70L377.21-25.70L377.21-25.70Q378.79-29.09 378.79-33.62L378.79-33.62L378.79-33.62Q378.79-34.92 378.72-35.57L378.72-35.57L378.72-35.57Q378.58-39.31 375.98-40.18L375.98-40.18L375.98-40.18Q375.12-40.46 374.62-40.46L374.62-40.46L374.62-40.46Q372.60-40.46 371.66-38.23L371.66-38.23L371.66-38.23Q369.86-33.77 369.86-28.58L369.86-28.58L369.86-28.58Q369.86-23.83 371.45-18.50L371.45-18.50L371.45-18.50Q371.74-17.35 372.96-14.62L372.96-14.62L372.96-14.62Q374.18-11.88 374.69-10.94L374.69-10.94L375.12-8.93L375.12-8.93Q375.70-6.48 376.13-5.40L376.13-5.40L376.13-5.40Q376.63-3.89 376.63-2.38L376.63-2.38L376.63-2.38Q376.63 0.07 374.47 1.87L374.47 1.87L374.47 1.87Q372.46 3.46 371.02 5.80L371.02 5.80L371.02 5.80Q369.58 8.14 368.86 10.80L368.86 10.80L368.86 10.80Q368.50 12.24 368.50 13.18L368.50 13.18L368.50 13.18Q368.50 15.55 370.44 16.99L370.44 16.99L370.44 16.99Q372.82 19.01 375.05 19.01L375.05 19.01L375.05 19.01Q376.42 19.01 378.07 18.14L378.07 18.14L378.07 18.14Q380.52 16.63 382.00 14.62L382.00 14.62L382.00 14.62Q383.47 12.60 384.62 9.79L384.62 9.79L384.62 9.79Q385.56 7.27 385.56 4.10L385.56 4.10L385.56 4.10Q385.56 2.38 385.27 0.18L385.27 0.18L385.27 0.18Q384.98-2.02 384.91-2.81L384.91-2.81L384.91-2.81Q384.62-4.39 384.55-5.18L384.55-5.18L384.55-5.18Q384.48-5.54 384.48-6.19L384.48-6.19L384.48-6.19Q384.48-7.99 385.92-9.36L385.92-9.36L385.92-9.36Q387.72-11.23 391.54-16.13L391.54-16.13L391.54-16.13Q394.56-20.02 395.86-21.46L395.86-21.46L395.86-21.46Q396.14-21.74 396.25-22.07L396.25-22.07L396.25-22.07Q396.36-22.39 396.07-22.68L396.07-22.68L396.07-22.68Q396.00-22.90 395.78-22.90L395.78-22.90L395.78-22.90Q395.57-22.90 395.32-22.72L395.32-22.72L395.32-22.72Q395.06-22.54 394.99-22.46L394.99-22.46L393.12-20.52L389.59-16.20L389.59-16.20Q385.63-11.09 383.98-9.36L383.98-9.36ZM375.48-25.92L375.48-25.92Q374.18-28.51 374.18-31.25L374.18-31.25L374.18-31.25Q374.18-33.55 375.12-36.14L375.12-36.14L375.12-36.14Q375.19-36.29 375.37-36.61L375.37-36.61L375.37-36.61Q375.55-36.94 375.91-36.94L375.91-36.94L375.91-36.94Q376.42-36.94 376.56-36.65L376.56-36.65L376.56-36.65Q376.70-36.36 376.70-35.78L376.70-35.78L376.70-35.78Q377.06-34.13 377.06-32.83L377.06-32.83L377.06-32.83Q377.06-29.81 375.48-25.92L375.48-25.92ZM377.64 2.23L377.64 2.23Q377.57 3.02 377.57 4.54L377.57 4.54L377.57 4.54Q377.50 7.27 377.24 8.93L377.24 8.93L377.24 8.93Q376.99 10.58 376.06 12.10L376.06 12.10L376.06 12.10Q375.48 13.10 374.62 14.04L374.62 14.04L374.62 14.04Q373.97 14.62 373.54 14.87L373.54 14.87L373.54 14.87Q373.10 15.12 372.60 15.12L372.60 15.12L372.60 15.12Q372.24 15.12 371.66 14.90L371.66 14.90L371.66 14.90Q371.09 14.54 370.73 13.82L370.73 13.82L370.73 13.82Q370.37 13.10 370.37 12.31L370.37 12.31L370.37 12.31Q370.37 12.10 370.51 11.52L370.51 11.52L370.51 11.52Q371.45 8.35 374.83 4.32L374.83 4.32L376.99 2.02L376.99 2.02Q377.35 2.23 377.64 2.23L377.64 2.23ZM392.69-12.10L392.69-12.10Q392.69-9.36 392.98-7.99L392.98-7.99L392.98-7.99Q393.91-2.52 399.53-0.50L399.53-0.50L399.53-0.50Q400.82 0 402.26 0L402.26 0L402.26 0Q405.43 0 408.10-2.45L408.10-2.45L408.10-2.45Q410.62-4.68 412.42-7.52L412.42-7.52L412.42-7.52Q414.22-10.37 415.73-14.04L415.73-14.04L415.73-14.04Q417.74-18.94 418.68-21.38L418.68-21.38L418.68-21.38Q418.90-21.74 419.36-22.43L419.36-22.43L419.36-22.43Q419.83-23.11 419.83-23.54L419.83-23.54L419.83-23.54Q419.83-23.98 419.26-24.26L419.26-24.26L419.26-24.26Q418.10-24.84 417.24-21.82L417.24-21.82L417.24-21.82Q416.09-18.36 413.28-12.96L413.28-12.96L411.70-9.72L411.70-9.72Q409.97-6.05 406.51-4.32L406.51-4.32L406.51-4.32Q405.94-4.03 405.14-4.03L405.14-4.03L405.14-4.03Q404.14-4.03 403.63-4.97L403.63-4.97L403.63-4.97Q403.49-5.33 402.88-6.44L402.88-6.44L402.88-6.44Q402.26-7.56 402.26-8.57L402.26-8.57L402.26-8.57Q402.34-10.44 402.12-12.64L402.12-12.64L402.12-12.64Q401.90-14.83 401.83-15.41L401.83-15.41L401.83-15.41Q401.69-16.42 401.54-18.14L401.54-18.14L401.54-18.14Q401.40-19.94 402.12-21.10L402.12-21.10L402.12-21.10Q402.84-22.25 404.57-23.18L404.57-23.18L404.57-23.18Q413.78-28.08 414.86-38.81L414.86-38.81L414.86-38.81Q415.15-41.62 413.53-43.42L413.53-43.42L413.53-43.42Q411.91-45.22 409.39-45.22L409.39-45.22L409.39-45.22Q408.02-45.22 406.73-44.71L406.73-44.71L406.73-44.71Q403.20-43.34 401.11-40.03L401.11-40.03L401.11-40.03Q392.69-26.57 392.69-12.10L392.69-12.10ZM402.34-24.55L402.34-24.55Q403.13-31.97 405.29-37.44L405.29-37.44L405.29-37.44Q406.01-39.24 408.02-40.82L408.02-40.82L408.02-40.82Q409.25-41.76 410.33-41.76L410.33-41.76L410.33-41.76Q411.05-41.76 411.77-41.33L411.77-41.33L411.77-41.33Q412.85-40.61 412.85-39.31L412.85-39.31L412.85-39.31Q412.85-38.88 412.70-38.16L412.70-38.16L412.70-38.16Q412.06-34.99 410.90-32.51L410.90-32.51L410.90-32.51Q409.75-30.02 407.66-28.08L407.66-28.08L407.66-28.08Q407.45-27.86 406.48-27.00L406.48-27.00L406.48-27.00Q405.50-26.14 404.50-25.52L404.50-25.52L404.50-25.52Q403.49-24.91 402.34-24.55L402.34-24.55ZM423.29-9.94L423.29-9.94Q423.22-9.43 422.71-7.99L422.71-7.99L422.71-7.99Q421.56-3.74 420.91-0.90L420.91-0.90L420.91-0.90Q420.26 1.94 419.90 4.75L419.90 4.75L419.90 4.75Q419.69 6.26 419.69 7.70L419.69 7.70L419.69 7.70Q419.69 12.02 422.21 14.90L422.21 14.90L422.21 14.90Q423.58 16.27 425.23 16.27L425.23 16.27L425.23 16.27Q425.81 16.27 426.17 16.20L426.17 16.20L426.17 16.20Q427.39 15.91 428.54 14.98L428.54 14.98L428.54 14.98Q432.07 12.10 434.38 8.32L434.38 8.32L434.38 8.32Q436.68 4.54 438.01 0.58L438.01 0.58L438.01 0.58Q439.34-3.38 441.00-9.65L441.00-9.65L441.00-9.65Q442.73-16.06 444.17-20.38L444.17-20.38L444.17-20.38Q444.31-20.74 444.64-21.31L444.64-21.31L444.64-21.31Q444.96-21.89 444.96-22.25L444.96-22.25L444.96-22.25Q444.96-22.68 444.46-22.97L444.46-22.97L444.46-22.97Q443.95-23.11 443.63-22.64L443.63-22.64L443.63-22.64Q443.30-22.18 443.05-21.64L443.05-21.64L443.05-21.64Q442.80-21.10 442.73-20.95L442.73-20.95L442.73-20.95Q442.44-20.23 442.44-19.87L442.44-19.87L442.44-19.87Q440.93-11.88 437.83-4.43L437.83-4.43L437.83-4.43Q434.74 3.02 431.68 7.49L431.68 7.49L431.68 7.49Q428.62 11.95 427.46 11.38L427.46 11.38L427.46 11.38Q426.89 11.09 426.89 10.51L426.89 10.51L426.89 10.51Q426.89 10.15 427.07 9.65L427.07 9.65L427.07 9.65Q427.25 9.14 427.32 9.00L427.32 9.00L427.32 9.00Q429.41 2.95 430.78-2.95L430.78-2.95L430.78-2.95Q432.22-11.09 434.74-18.58L434.74-18.58L434.74-18.58Q435.10-19.87 435.24-22.61L435.24-22.61L435.24-22.61Q435.24-23.54 434.99-24.16L434.99-24.16L434.99-24.16Q434.74-24.77 433.94-25.06L433.94-25.06L433.94-25.06Q433.58-25.34 433.01-25.34L433.01-25.34L433.01-25.34Q432.14-25.34 431.21-24.41L431.21-24.41L431.21-24.41Q428.33-21.67 427.25-19.37L427.25-19.37L427.25-19.37Q426.31-16.92 425.45-15.19L425.45-15.19L424.37-12.82L424.37-12.82Q424.01-11.95 423.50-11.95L423.50-11.95L423.50-11.95Q423.22-11.95 422.93-12.17L422.93-12.17L422.93-12.17Q421.78-12.89 421.16-13.93L421.16-13.93L421.16-13.93Q420.55-14.98 420.55-16.27L420.55-16.27L420.55-16.27Q420.55-17.28 420.84-18.07L420.84-18.07L420.84-18.07Q420.91-18.36 421.06-18.68L421.06-18.68L421.06-18.68Q421.20-19.01 421.34-19.44L421.34-19.44L421.34-19.44Q421.70-20.38 423.00-23.33L423.00-23.33L423.00-23.33Q424.73-27.00 425.38-29.52L425.38-29.52L425.38-29.52Q425.74-30.89 426.06-32.33L426.06-32.33L426.06-32.33Q426.38-33.77 426.38-34.99L426.38-34.99L426.38-34.99Q426.38-35.93 426.17-36.86L426.17-36.86L426.17-36.86Q425.95-38.23 425.41-38.66L425.41-38.66L425.41-38.66Q424.87-39.10 423.36-39.02L423.36-39.02L423.36-39.02Q422.35-39.02 421.63-38.56L421.63-38.56L421.63-38.56Q420.91-38.09 420.26-37.15L420.26-37.15L420.26-37.15Q419.33-35.93 418.97-33.84L418.97-33.84L418.97-33.84Q417.53-27.14 417.53-22.68L417.53-22.68L417.53-22.68Q417.53-20.66 417.89-18.14L417.89-18.14L417.89-18.14Q418.39-15.26 418.79-13.93L418.79-13.93L418.79-13.93Q419.18-12.60 420.23-11.59L420.23-11.59L420.23-11.59Q421.27-10.58 423.29-9.94L423.29-9.94ZM420.91-21.31L420.91-21.31Q420.34-21.96 420.34-22.68L420.34-22.68L420.34-22.68Q420.34-22.97 420.41-23.26L420.41-23.26L420.41-23.26Q420.48-23.54 420.48-23.83L420.48-23.83L421.99-33.48L421.99-33.48Q422.21-35.14 423.07-36.29L423.07-36.29L423.07-36.29Q423.36-36.65 423.61-36.79L423.61-36.79L423.61-36.79Q423.86-36.94 424.22-36.86L424.22-36.86L424.22-36.86Q424.87-36.79 424.87-35.78L424.87-35.78L424.87-35.78Q425.09-34.06 425.02-33.62L425.02-33.62L425.02-33.62Q424.22-27.58 420.91-21.31L420.91-21.31Z"></path></g><g id="" class="logo--name svgSloganText_1 sloganBox" transform="scale(1) translate(198.4,254.4)" fill=""><path d=""></path></g></g></g></g>
</svg>